<?xml version="1.0" standalone="no"?>
<!DOCTYPE svg PUBLIC "-//W3C//DTD SVG 1.1//EN" "http://www.w3.org/Graphics/SVG/1.1/DTD/svg11.dtd" >
<svg>
<metadata>
Created by FontForge 20090914 at Fri Feb 24 12:30:36 2012
 By root
Generated in 2007 by FontLab Studio. Copyright info pending.
</metadata>
<defs>
<font id="Serif6Beta-Bold" horiz-adv-x="516" >
  <font-face 
    font-family="Serif6 Beta Rg"
    font-weight="700"
    font-stretch="normal"
    units-per-em="1000"
    panose-1="0 0 0 0 0 0 0 0 0 0"
    ascent="750"
    descent="-250"
    x-height="500"
    cap-height="714"
    bbox="-95 -272.304 1234 950.586"
    underline-thickness="50"
    underline-position="-50"
    unicode-range="U+0020-U+FB02"
  />
<missing-glyph horiz-adv-x="252" 
 />
    <glyph glyph-name="fi" unicode="fi" horiz-adv-x="643" 
d="M0 453v33l78 13v19c0 113 81 208 241 208c82 0 176 -24 195 -75c13 -36 -21 -68 -70 -69c-41 -2 -62 31 -66 71c-14 8 -35 16 -73 16c-61 0 -84 -41 -84 -101v-68h106v-47h-106v-405l72 -12l-1 -39l-147 3l-135 -3l-2 39l70 10v407h-78zM413 46v397l-57 10l2 40l197 12
v-457l71 -12l-1 -39l-147 3l-135 -3l-2 39z" />
    <glyph glyph-name="fl" unicode="fl" horiz-adv-x="648" 
d="M221 542v-42h116v-40h-116v-412l72 -12l-1 -39l-147 3l-135 -3l-2 39l70 10v414h-68v21l68 10v27c0 113 81 208 241 208c57 0 132 -11 180 -33l72 7v-652l71 -12l-1 -39l-157 3l-124 -3l-2 39l70 10v594c-25 17 -64 27 -113 27c-68 0 -94 -49 -94 -125z" />
    <glyph glyph-name="Th.liga" unicode="Th" horiz-adv-x="1245" 
d="M682 53v596c-24 3 -53 2 -85 2h-182v-597l73 -9l-1 -47l-148 3l-143 -3v47l69 9v597h-50c-87 1 -138 5 -138 -73v-30h-45l1 166h649l142 18v-311l34 -7c26 63 70 96 139 96c94 0 165 -49 165 -162v-293l72 -12l-1 -46l-136 3l-136 -3l-2 46l62 10v298c0 54 -21 74 -72 74
c-61 0 -122 -58 -125 -139v-231l73 -12l-1 -46l-149 3l-134 -3l-2 46z" />
    <glyph glyph-name=".notdef" horiz-adv-x="252" 
 />
    <glyph glyph-name="exclam" unicode="!" horiz-adv-x="340" 
d="M249 642l-44 -427c-1 -20 -64 -18 -65 0l-40 427c-3 47 31 80 76 81c44 1 75 -31 73 -81zM107 47c0 33 29 56 70 56c40 0 71 -23 71 -56s-31 -54 -71 -54c-41 0 -70 21 -70 54z" />
    <glyph glyph-name="quotedbl" unicode="&#x22;" horiz-adv-x="398" 
d="M91 476l-15 202c-3 60 102 64 98 0l-15 -202h-68zM243 476l-15 202c-3 60 102 64 98 0l-15 -202h-68z" />
    <glyph glyph-name="numbersign" unicode="#" horiz-adv-x="564" 
d="M278 0l37 207h-107l-37 -207h-46l37 207h-125l4 43h129l38 206h-150l4 43h154l39 215h46l-39 -215h107l39 215h47l-39 -215h124l-3 -43h-129l-38 -206h148l-3 -43h-153l-37 -207h-47zM254 456l-38 -206h107l38 206h-107z" />
    <glyph glyph-name="dollar" unicode="$" horiz-adv-x="578" 
d="M114 224c28 -106 54 -152 138 -163l23 240c-7 3 -14 7 -21 11c-150 73 -200 134 -200 230c0 113 119 181 237 181c8 0 15 0 23 -1l8 89h49l-9 -94c47 -9 82 -24 100 -34l32 32h38v-202h-60c-16 73 -60 115 -117 132l-20 -219c3 -2 7 -3 11 -5c147 -68 211 -133 211 -234
c0 -126 -124 -197 -257 -197h-6l-8 -88h-48l8 92c-57 9 -99 30 -129 45l-33 -38h-34v222zM416 149c0 57 -22 84 -95 126l-21 -217h4c71 0 112 33 112 91zM186 573c0 -55 40 -89 102 -123l19 203c-5 1 -9 1 -14 1c-75 0 -107 -28 -107 -81z" />
    <glyph glyph-name="percent" unicode="%" horiz-adv-x="883" 
d="M104 566c0 87 67 158 177 158s178 -71 178 -158c0 -92 -68 -166 -178 -166s-177 75 -177 166zM214 566c0 -65 17 -110 67 -110s67 45 67 110c0 59 -17 102 -67 102s-67 -43 -67 -102zM200 0l439 714h58l-437 -714h-60zM443 156c0 87 67 158 177 158s178 -71 178 -158
c0 -92 -68 -166 -178 -166s-177 75 -177 166zM554 156c0 -65 16 -111 66 -111s67 46 67 111c0 59 -17 102 -67 102s-66 -43 -66 -102z" />
    <glyph glyph-name="ampersand" unicode="&#x26;" horiz-adv-x="736" 
d="M680 92c15 0 28 7 39 22l19 -19c-29 -56 -77 -102 -134 -102c-42 0 -78 20 -116 58c-50 -36 -112 -59 -187 -59c-159 0 -257 60 -257 178c0 90 67 184 189 216l-17 24c-34 44 -59 100 -58 162c1 85 72 148 189 148c81 0 159 -44 159 -126c0 -85 -55 -138 -132 -179
l104 -144c26 -34 48 -63 69 -87c9 15 17 31 24 46c-2 30 -8 42 -8 72c0 20 11 40 36 40c29 0 39 -23 31 -61c-8 -42 -25 -89 -52 -132c37 -38 68 -57 102 -57zM329 256l-68 92c-54 -54 -61 -91 -61 -163c0 -71 59 -126 156 -126c36 0 69 11 98 29c-36 43 -76 100 -125 168z
M413 584c0 60 -24 88 -70 88c-27 0 -54 -27 -54 -80c0 -52 27 -97 63 -146c35 31 61 74 61 138z" />
    <glyph glyph-name="quotesingle" unicode="'" horiz-adv-x="204" 
d="M70 476l-15 202c-3 60 102 64 98 0l-15 -202h-68z" />
    <glyph glyph-name="parenleft" unicode="(" horiz-adv-x="362" 
d="M340 -188l-7 -41c-169 84 -264 313 -264 526c0 193 95 413 264 497l7 -41c-109 -89 -144 -300 -144 -456c0 -172 35 -396 144 -485z" />
    <glyph glyph-name="parenright" unicode=")" horiz-adv-x="362" 
d="M27 753l6 41c169 -84 263 -313 263 -526c0 -193 -94 -413 -263 -497l-6 41c109 89 143 299 143 456c0 171 -34 396 -143 485z" />
    <glyph glyph-name="asterisk" unicode="*" 
d="M201 717h59l-5 -153l151 53l18 -54l-156 -42l98 -119l-47 -32l-89 121l-87 -121l-48 32l97 118l-155 43l19 53l151 -53z" />
    <glyph glyph-name="plus" unicode="+" 
d="M234 500h55v-174h196v-53h-196v-175h-55v175h-197v53h197v174z" />
    <glyph glyph-name="comma" unicode="," horiz-adv-x="232" 
d="M61 45c0 33 25 54 60 54c42 0 72 -35 72 -87c0 -94 -75 -177 -110 -195l-30 29c33 31 66 67 69 136c-34 5 -61 34 -61 63z" />
    <glyph glyph-name="hyphen" unicode="-" horiz-adv-x="438" 
d="M80 276v99h269v-99h-269z" />
    <glyph glyph-name="period" unicode="." horiz-adv-x="194" 
d="M20 53c0 33 30 63 79 63c48 0 79 -30 79 -63s-31 -60 -79 -60c-49 0 -79 27 -79 60z" />
    <glyph glyph-name="slash" unicode="/" horiz-adv-x="495" 
d="M43 -108l363 839h47l-364 -839h-46z" />
    <glyph glyph-name="zero" unicode="0" horiz-adv-x="718" 
d="M46 357c0 208 116 367 316 367c201 0 317 -159 317 -367s-116 -366 -317 -366c-200 0 -316 158 -316 366zM208 357c0 -179 37 -305 154 -305c118 0 155 126 155 305c0 178 -37 306 -155 306c-117 0 -154 -128 -154 -306z" />
    <glyph glyph-name="one" unicode="1" horiz-adv-x="425" 
d="M288 59l95 -13v-48l-191 2l-144 -2v48l96 11v529h-97l1 57c66 3 131 23 162 71l78 2v-657z" />
    <glyph glyph-name="two" unicode="2" horiz-adv-x="565" 
d="M220 118h256l11 27l47 -1l-21 -144h-465l-4 55c242 239 312 334 312 474c0 82 -35 113 -116 113c-21 0 -47 -9 -65 -39c4 -17 16 -42 16 -60c0 -38 -25 -73 -81 -73c-74 0 -76 78 -51 129c49 70 136 120 229 120c114 0 227 -40 227 -193c1 -132 -146 -254 -307 -381z" />
    <glyph glyph-name="three" unicode="3" horiz-adv-x="593" 
d="M184 310l-17 58l-22 45c212 26 229 75 229 142c0 45 -30 90 -102 90c-35 0 -78 -5 -108 -28c14 -16 28 -26 28 -48c0 -50 -28 -73 -75 -73c-55 0 -73 74 -48 126c42 76 150 100 218 100c118 0 244 -50 244 -170c0 -80 -68 -139 -214 -167l3 -26c175 -1 242 -83 242 -173
c0 -140 -154 -195 -306 -195c-100 0 -190 46 -215 91c-31 69 -10 139 53 139c52 0 73 -37 73 -70c0 -20 -16 -37 -23 -44c15 -30 85 -39 124 -39c82 0 127 53 127 121c0 125 -58 152 -211 121z" />
    <glyph glyph-name="four" unicode="4" horiz-adv-x="629" 
d="M43 161v43h1l353 510l100 -1v-440h107l-12 -112h-95v-110l80 -13v-40l-177 2l-125 -2v40l78 11v112h-310zM353 532l-175 -259h175v259z" />
    <glyph glyph-name="five" unicode="5" horiz-adv-x="584" 
d="M407 599h-240l-16 -179l11 -4c41 38 100 70 162 70c165 0 227 -135 227 -247c0 -155 -120 -248 -286 -248c-94 0 -180 46 -204 91c-31 69 8 136 61 136c52 0 72 -39 72 -77c0 -15 -21 -32 -31 -37c12 -20 45 -39 87 -39c107 0 151 76 151 183c0 53 -41 117 -124 117
c-57 0 -99 -9 -137 -23l-64 1l40 371h351l22 -152h-33c-4 19 -19 37 -49 37z" />
    <glyph glyph-name="six" unicode="6" horiz-adv-x="636" 
d="M563 597c0 -44 -29 -67 -63 -67c-28 0 -56 24 -61 57c-1 22 11 37 20 61c-13 9 -36 11 -61 11c-126 0 -179 -119 -186 -316l22 -6c20 65 81 102 150 102c133 0 211 -91 211 -202c0 -138 -110 -242 -269 -242c-198 0 -277 168 -277 295c0 268 136 432 308 432
c122 0 207 -54 206 -125zM345 60c74 0 96 61 96 153c0 91 -31 146 -109 146c-53 0 -102 -31 -121 -92c3 -96 25 -207 134 -207z" />
    <glyph glyph-name="seven" unicode="7" horiz-adv-x="521" 
d="M312 70c0 -52 -19 -76 -63 -76c-47 0 -75 24 -75 76c0 157 59 301 213 497l-2 29h-277c-30 0 -49 -13 -60 -37l-34 1l14 154h482v-50c-170 -208 -198 -415 -198 -594z" />
    <glyph glyph-name="eight" unicode="8" horiz-adv-x="637" 
d="M560 561c0 -73 -56 -123 -133 -148l8 -30c81 -43 156 -104 156 -190c0 -108 -104 -200 -268 -200c-171 0 -279 77 -279 170c0 75 61 130 146 157l-11 44c-62 40 -113 95 -113 167c0 103 95 190 246 190c153 0 248 -72 248 -160zM298 308c-13 4 -26 9 -39 14
c-68 -29 -96 -89 -96 -149c0 -71 42 -123 160 -123c95 0 128 47 128 113c0 76 -82 120 -153 145zM338 426c11 -5 23 -9 35 -14c48 30 68 82 68 139c0 65 -34 112 -129 112c-79 0 -107 -43 -107 -102c0 -71 71 -112 133 -135z" />
    <glyph glyph-name="nine" unicode="9" horiz-adv-x="626" 
d="M79 95l-1 1c-14 44 0 98 46 98c42 0 57 -22 57 -73c0 -14 -9 -36 -24 -49c18 -10 42 -14 70 -14c124 0 177 89 191 242l-36 5c-32 -30 -68 -38 -112 -38c-145 0 -232 101 -232 224c0 116 110 231 269 231c198 0 272 -192 272 -335c0 -218 -151 -392 -312 -392
c-100 0 -168 51 -189 100h1zM294 657c-84 0 -112 -69 -112 -172c0 -86 31 -148 109 -148c58 0 116 36 130 101c-3 102 -21 219 -127 219zM422 404v23l-2 -93c1 22 2 45 2 70z" />
    <glyph glyph-name="colon" unicode=":" horiz-adv-x="245" 
d="M30 418c0 33 30 63 79 63c48 0 79 -30 79 -63s-31 -60 -79 -60c-49 0 -79 27 -79 60zM30 53c0 33 30 63 79 63c48 0 79 -30 79 -63s-31 -60 -79 -60c-49 0 -79 27 -79 60z" />
    <glyph glyph-name="semicolon" unicode=";" horiz-adv-x="253" 
d="M35 418c0 33 30 63 79 63c48 0 79 -30 79 -63s-31 -60 -79 -60c-49 0 -79 27 -79 60zM71 45c0 33 25 54 60 54c42 0 72 -35 72 -87c0 -94 -75 -177 -110 -195l-30 29c33 31 66 67 69 136c-34 5 -61 34 -61 63z" />
    <glyph glyph-name="less" unicode="&#x3c;" horiz-adv-x="452" 
d="M431 428l-333 -136l333 -131v-61l-402 168v47l402 169v-56z" />
    <glyph glyph-name="equal" unicode="=" horiz-adv-x="558" 
d="M48 366v53h468v-53h-468zM48 203v53h468v-53h-468z" />
    <glyph glyph-name="greater" unicode="&#x3e;" horiz-adv-x="452" 
d="M29 156l332 136l-332 131v61l402 -168v-47l-402 -169v56z" />
    <glyph glyph-name="question" unicode="?" horiz-adv-x="522" 
d="M309 322v-127c0 -26 -116 -25 -116 0v114c105 43 151 144 151 226c0 84 -33 130 -102 130c-36 0 -68 -6 -98 -30c19 -18 31 -43 31 -62c0 -38 -25 -73 -75 -73c-48 0 -64 68 -38 115c46 64 129 110 218 110c122 0 207 -48 207 -160c0 -104 -29 -167 -178 -243zM182 47
c0 33 30 56 70 56c41 0 70 -23 70 -56s-29 -54 -70 -54c-40 0 -70 21 -70 54z" />
    <glyph glyph-name="at" unicode="@" horiz-adv-x="942" 
d="M894 325c0 -136 -126 -289 -270 -289c-52 0 -85 24 -84 87l-27 11c-9 -33 -46 -103 -118 -103c-85 0 -134 74 -124 169c18 186 163 255 232 255c34 0 54 -8 72 -36l14 29h86l-37 -299c-5 -49 1 -54 25 -54c51 0 129 115 129 208c0 141 -68 267 -251 268
c-193 1 -360 -134 -360 -379c0 -162 96 -282 273 -282c132 0 204 29 266 74l13 -39c-61 -52 -148 -99 -293 -99c-236 0 -366 161 -366 346c0 276 221 445 467 444c254 -1 353 -151 353 -311zM436 107c63 0 105 110 119 153l9 68c7 47 -13 65 -78 65c-45 0 -89 -44 -102 -183
c-7 -65 11 -103 52 -103z" />
    <glyph glyph-name="A" unicode="A" horiz-adv-x="754" 
d="M16 43l67 9s44 85 89 207l166 455h91l249 -658l77 -13v-45l-156 2l-162 -2v45l78 11l-54 152h-238c-38 -100 -61 -152 -61 -152l72 -11v-45l-118 2l-100 -2v45zM343 539l-100 -278h198z" />
    <glyph glyph-name="B" unicode="B" horiz-adv-x="677" 
d="M28 714h288c194 0 297 -78 297 -180c0 -91 -61 -134 -151 -155l2 -25c108 -12 193 -55 193 -171c0 -102 -106 -183 -298 -183h-185l-146 -2v45l80 11v604l-81 9zM251 62v-1h101c116 -1 155 65 155 125c0 66 -31 140 -166 137h-90v-261zM251 651v-256h65
c119 4 148 72 148 136c0 60 -39 122 -157 121z" />
    <glyph glyph-name="C" unicode="C" horiz-adv-x="704" 
d="M212 359c0 -176 82 -293 202 -293c131 0 186 82 223 138h33v-203h-45l-16 53c-26 -24 -103 -61 -197 -61c-148 0 -362 109 -362 365s214 365 362 365c94 0 171 -37 197 -61l16 53h45v-203h-33c-37 55 -92 137 -223 137c-120 0 -202 -117 -202 -290z" />
    <glyph glyph-name="D" unicode="D" horiz-adv-x="763" 
d="M251 62l76 -1c189 -4 244 164 244 302c0 133 -71 290 -254 289l-66 -1v-589zM28 714h308c244 0 385 -162 385 -348c0 -239 -167 -366 -385 -366h-163l-145 -2v45l79 11v604l-81 9z" />
    <glyph glyph-name="E" unicode="E" horiz-adv-x="701" 
d="M28 714h579l-3 -187h-55l-2 18c-6 38 -49 107 -139 106l-147 -1v-264h26c74 -1 128 16 128 69v20h32v-232h-32v20c0 52 -58 63 -131 62h-23v-262l180 -1c85 1 158 59 169 101l4 18l53 -2l-27 -179h-456l-156 -2v45l80 11v604l-81 9z" />
    <glyph glyph-name="F" unicode="F" horiz-adv-x="620" 
d="M28 714h569l11 -187h-54l-10 31c-23 69 -76 95 -182 94l-111 -2v-264h70c72 -1 127 16 127 69v20h32v-232h-32v20c0 52 -57 64 -130 63h-67v-270l81 -8v-50l-158 2l-146 -2v45l80 11v604l-81 9z" />
    <glyph glyph-name="G" unicode="G" horiz-adv-x="779" 
d="M212 359v-2c0 -174 82 -292 202 -292c131 0 152 81 152 93v105l-82 19v35l159 -3l122 3v-33l-55 -19v-149h1l2 -120l-63 -2l-20 53c-60 -32 -138 -54 -218 -54c-148 0 -362 109 -362 365s220 365 372 365c94 0 166 -37 191 -61l15 53h51v-218h-36
c-26 78 -87 154 -219 154c-126 0 -212 -119 -212 -292z" />
    <glyph glyph-name="H" unicode="H" horiz-adv-x="821" 
d="M261 56l77 -13v-45l-164 2l-146 -2v45l80 11v604l-81 9l1 47l144 -2l165 2v-47l-76 -9v-271h310v271l-78 9l1 47l163 -2l145 2v-47l-76 -9v-602l77 -13v-45l-144 2l-165 -2v45l77 11v256h-310v-254z" />
    <glyph glyph-name="I" unicode="I" horiz-adv-x="393" 
d="M272 56l77 -13v-45l-149 2l-151 -2v45l79 11v604l-80 9l1 47l149 -3l150 3v-47l-76 -9v-602z" />
    <glyph glyph-name="J" unicode="J" horiz-adv-x="509" 
d="M264 658l-77 9l1 47l143 -3l156 3v-47l-79 -11l-1 -381c0 -165 -93 -281 -271 -281c-83 0 -109 29 -109 58c0 36 20 71 53 71c53 0 53 -56 112 -56c43 0 72 35 72 136v455z" />
    <glyph glyph-name="K" unicode="K" horiz-adv-x="764" 
d="M251 56l78 -13v-45l-155 2l-146 -2v45l80 11v604l-81 9l1 47l144 -3l156 3v-47l-77 -9v-296l286 287l-2 16l-73 4l2 45l145 -2l119 2v-44l-84 -9l-232 -234l298 -369l58 -14l-1 -45l-108 1l-203 -1v44l59 12l-1 11l-206 255l-57 -58v-207z" />
    <glyph glyph-name="L" unicode="L" horiz-adv-x="621" 
d="M261 658v-596h122c100 -1 156 6 173 104l5 31h53l-18 -197h-422l-146 -2v45l80 11v604l-81 9l1 47l144 -3l166 3v-47z" />
    <glyph glyph-name="M" unicode="M" horiz-adv-x="979" 
d="M885 56l77 -13v-45l-155 2l-145 -2v45l79 11v500l-262 -554h-25l-297 563l2 -225c1 -102 9 -282 9 -282l86 -13v-45l-114 2l-125 -2v45l78 11s9 182 10 284l2 265c0 55 -43 58 -85 64l1 47h218l277 -515l245 515h200v-47l-76 -9v-602z" />
    <glyph glyph-name="N" unicode="N" horiz-adv-x="814" 
d="M638 656l-90 13v45l109 -2l135 2v-45l-68 -11s-8 -78 -8 -250l-1 -408h-81l-449 541v-204c0 -164 6 -281 6 -281l87 -13v-45l-109 2l-142 -2v45l83 11s7 119 7 281v288c0 55 -44 38 -86 44l1 47h203l411 -499v191c0 172 -8 250 -8 250z" />
    <glyph glyph-name="O" unicode="O" horiz-adv-x="811" 
d="M50 357c0 208 141 367 361 367s359 -159 359 -367s-139 -366 -359 -366s-361 158 -361 366zM213 357c0 -165 54 -292 198 -292c143 0 197 127 197 292c0 164 -54 293 -197 293c-144 0 -198 -129 -198 -293z" />
    <glyph glyph-name="P" unicode="P" horiz-adv-x="658" 
d="M256 56l78 -13v-45l-155 2l-151 -2v45l80 11v604l-81 9l1 47h295c205 0 319 -101 319 -215c0 -153 -141 -222 -319 -222h-67v-221zM314 649h-58v-314h70c135 0 166 77 166 161c0 70 -45 154 -178 153z" />
    <glyph glyph-name="Q" unicode="Q" horiz-adv-x="812" 
d="M50 357c0 208 141 367 361 367s359 -159 359 -367c0 -176 -99 -316 -263 -355l-71 -48c98 -27 99 -95 184 -95c44 0 63 13 81 26c7 5 6 26 30 26c19 0 31 -27 19 -35c-31 -30 -123 -99 -190 -99c-126 0 -159 89 -239 123c-15 6 -38 3 -69 -16c-25 27 -26 48 13 53l120 55
c-205 12 -335 165 -335 365zM213 357c0 -165 54 -292 198 -292c143 0 197 127 197 292c0 164 -54 293 -197 293c-144 0 -198 -129 -198 -293z" />
    <glyph glyph-name="R" unicode="R" horiz-adv-x="724" 
d="M256 56l78 -13v-45l-155 2l-151 -2v45l80 11v604l-81 9l1 47h293c195 0 297 -78 297 -180c0 -101 -68 -146 -173 -167l3 -27c118 -3 178 -70 178 -145v-37c0 -81 17 -114 46 -114c13 0 25 20 30 20l22 -23c-27 -41 -59 -47 -123 -47c-87 0 -128 63 -128 163v39
c0 55 -24 126 -80 126h-137v-266zM314 652h-58v-277h56c135 -3 153 83 153 156c0 60 -36 122 -151 121z" />
    <glyph glyph-name="S" unicode="S" horiz-adv-x="605" 
d="M114 224c33 -125 64 -166 190 -166c71 0 112 33 112 91c0 72 -35 96 -162 163c-150 73 -200 134 -200 230c0 113 119 181 237 181c84 0 146 -25 171 -40l32 32h38v-202h-60c-21 98 -93 141 -179 141c-75 0 -107 -28 -107 -81c0 -70 66 -106 160 -152
c147 -68 211 -133 211 -234c0 -126 -124 -197 -257 -197c-86 0 -144 30 -183 49l-33 -38h-34v222z" />
    <glyph glyph-name="T" unicode="T" horiz-adv-x="677" 
d="M476 651h-57v-597l79 -9l-1 -47l-147 3l-151 -3v47l75 9v597h-64c-81 1 -109 -55 -128 -112l-10 -30h-55l11 205h627l11 -205h-53l-10 30c-19 57 -46 113 -127 112z" />
    <glyph glyph-name="U" unicode="U" horiz-adv-x="775" 
d="M393 -2c-145 0 -286 72 -286 219v441l-80 9l1 47l146 -3l156 3v-47l-76 -9v-439c0 -97 67 -142 170 -142c114 0 182 48 182 152l-1 429l-74 9v47l121 -3l98 3l1 -47l-78 -9v-431c0 -154 -116 -229 -280 -229z" />
    <glyph glyph-name="V" unicode="V" horiz-adv-x="724" 
d="M715 668l-70 -13l-230 -655h-77l-251 655l-71 13v45l148 -2l150 2v-45l-78 -11l183 -477l142 477l-77 11v45l138 -2l93 2v-45z" />
    <glyph glyph-name="W" unicode="W" horiz-adv-x="1038" 
d="M340 0h-66l-192 651l-66 17l2 47l138 -2l175 1v-48l-91 -11l-1 -9l118 -415l161 483h97l185 -487l84 422v8l-96 13v43l138 -2l106 2v-45l-70 -14l-155 -654h-64l-210 536z" />
    <glyph glyph-name="X" unicode="X" horiz-adv-x="730" 
d="M6 42l58 13l231 284l-212 319l-65 13v45l142 -2l165 2v-45l-82 -11l136 -213l162 213l-70 11v45l118 -2l113 2v-45l-60 -13l-227 -268l5 -7l225 -328l64 -13v-45l-140 2l-155 -2v45l70 11l-151 229l-169 -229l73 -11v-45l-123 2l-108 -2v45z" />
    <glyph glyph-name="Y" unicode="Y" horiz-adv-x="711" 
d="M81 658l-64 13v45l132 -2l155 2v-45l-66 -11v-10l172 -262l136 257v14l-70 11v46l140 -2l86 2v-46l-58 -13l-207 -350v-251l78 -13v-45l-156 2l-143 -2v45l76 11v264z" />
    <glyph glyph-name="Z" unicode="Z" horiz-adv-x="654" 
d="M81 714h515v-25l-379 -624l201 1c105 0 169 73 155 118l-10 34l55 -1l-6 -218h-569v39l378 612h-132c-69 0 -146 -46 -160 -107l-4 -33l-56 2z" />
    <glyph glyph-name="bracketleft" unicode="[" horiz-adv-x="370" 
d="M246 -106l94 -13v-32h-201v925h200v-34l-93 -9v-837z" />
    <glyph glyph-name="backslash" unicode="\" horiz-adv-x="495" 
d="M101 731l364 -839h-59l-363 839h58z" />
    <glyph glyph-name="bracketright" unicode="]" horiz-adv-x="370" 
d="M139 729l-94 13v32h201v-925h-200v34l93 9v837z" />
    <glyph glyph-name="asciicircum" unicode="^" horiz-adv-x="350" 
d="M254 432l-80 204l-75 -204h-62l116 279h49l116 -279h-64z" />
    <glyph glyph-name="underscore" unicode="_" 
d="M37 -86v43h448v-43h-448z" />
    <glyph glyph-name="grave" unicode="`" horiz-adv-x="303" 
d="M194 550l-119 96c-10 10 -15 21 -13 32c2 22 46 53 69 48c9 -2 20 -8 26 -19l81 -125z" />
    <glyph glyph-name="a" unicode="a" horiz-adv-x="573" 
d="M124 330c-35 0 -51 23 -51 49c3 85 135 131 214 131c117 0 196 -38 196 -159v-250c0 -26 5 -35 25 -35c17 0 28 -2 40 7l14 -26c-24 -25 -76 -56 -135 -52c-45 4 -70 21 -80 48l-37 5c-24 -40 -72 -54 -140 -54c-75 0 -115 52 -115 116c0 79 92 146 216 169l71 13v64
c0 60 -24 92 -82 92c-28 0 -69 -5 -93 -28c10 -8 18 -15 18 -29c0 -34 -12 -61 -61 -61zM245 81c46 0 87 25 97 57v102l-63 -17c-54 -16 -80 -43 -80 -94c0 -33 16 -48 46 -48z" />
    <glyph glyph-name="b" unicode="b" horiz-adv-x="628" 
d="M76 143v512l-68 23l2 53l208 12v-303l33 -10c23 45 61 80 128 80c135 0 212 -121 212 -254c7 -121 -85 -256 -266 -256c-53 0 -108 21 -147 46l-76 -49l-34 4c4 37 8 81 8 142zM340 415c-63 0 -119 -33 -122 -76v-182c6 -64 43 -78 109 -78c89 0 116 95 116 177
c0 88 -34 159 -103 159z" />
    <glyph glyph-name="c" unicode="c" horiz-adv-x="531" 
d="M378 429c-3 10 -20 18 -47 18c-103 0 -140 -81 -140 -203c0 -102 42 -181 138 -181c70 0 107 12 136 64l40 -17c-29 -70 -110 -120 -204 -120c-178 0 -258 131 -258 244c0 134 92 276 255 276c71 0 139 -22 172 -69c26 -39 14 -109 -45 -109c-42 0 -57 32 -57 62
c0 18 2 16 10 35z" />
    <glyph glyph-name="d" unicode="d" horiz-adv-x="635" 
d="M425 655l-68 23l2 40l209 12v-655l72 -19v-40l-203 -22l-7 72l-35 9c-24 -53 -65 -85 -135 -85c-139 0 -217 128 -217 251c0 129 88 269 275 269c37 0 76 -13 107 -42v187zM289 87c64 0 127 28 136 69v186c-3 38 -31 88 -109 88c-95 0 -125 -69 -125 -189
c0 -78 28 -154 98 -154z" />
    <glyph glyph-name="e" unicode="e" horiz-adv-x="555" 
d="M515 252l-324 1v-17c0 -86 39 -180 142 -180c65 0 120 25 151 61l36 -27c-41 -59 -113 -100 -223 -100c-170 0 -254 133 -254 246c0 129 88 274 257 274c109 0 215 -56 215 -200v-58zM298 447c-67 0 -96 -48 -105 -145h184c0 116 -26 145 -79 145z" />
    <glyph glyph-name="f" unicode="f" horiz-adv-x="347" 
d="M21 445v41l71 7v25c0 113 76 208 226 208c55 0 112 -21 123 -65c9 -26 -3 -67 -43 -67c-59 0 -73 37 -63 65c-5 3 -12 6 -29 6c-53 0 -73 -37 -73 -97v-68h108v-55h-108v-397l84 -12l-1 -39l-149 3l-157 -3l-2 39l84 10v399h-71z" />
    <glyph glyph-name="g" unicode="g" horiz-adv-x="579" 
d="M41 324c0 98 91 186 237 186c29 0 55 -4 80 -10h200l6 -60h-89l-3 -8c27 -31 42 -69 42 -108c0 -103 -91 -181 -236 -181c-27 0 -52 2 -74 7c-20 -9 -37 -25 -37 -38c0 -30 31 -47 70 -45l94 1c181 0 240 -59 240 -145c0 -106 -124 -183 -294 -183
c-129 0 -265 41 -265 122c0 60 65 84 106 93l1 33c-36 19 -53 49 -52 85c1 21 6 46 58 70l-2 38c-53 32 -82 83 -82 143zM218 -34l-27 2c-57 -44 -53 -62 -53 -108c0 -30 53 -59 139 -58c89 1 161 42 161 102c0 36 -37 62 -129 63zM191 324c0 -81 21 -118 87 -118
c65 0 86 37 86 118c0 74 -21 121 -86 121c-66 0 -87 -47 -87 -121z" />
    <glyph glyph-name="h" unicode="h" horiz-adv-x="657" 
d="M92 46v596l-69 23l2 53l208 12v-306l34 -7c24 61 76 93 139 93c95 0 166 -49 166 -162v-300l77 -12l-1 -39l-142 3l-151 -3l-2 39l78 10v305c0 54 -22 74 -72 74c-62 0 -123 -57 -126 -136v-241l78 -12l-1 -39l-153 3l-141 -3l-2 39z" />
    <glyph glyph-name="i" unicode="i" horiz-adv-x="322" 
d="M92 46v371l-69 23l2 53l207 12v-457l86 -12l-1 -39l-150 3l-156 -3l-3 39zM80 657c0 33 29 61 83 61c53 0 81 -28 81 -61s-28 -63 -81 -63c-54 0 -83 30 -83 63z" />
    <glyph glyph-name="j" unicode="j" horiz-adv-x="333" 
d="M251 505v-445c0 -165 -68 -281 -237 -281c-62 0 -109 29 -109 58c0 30 22 58 65 58c46 0 46 -49 99 -49c29 0 41 33 41 142v429l-69 23l2 53zM92 657c0 33 29 61 83 61c46 0 71 -28 71 -61s-25 -63 -71 -63c-54 0 -83 30 -83 63z" />
    <glyph glyph-name="k" unicode="k" horiz-adv-x="634" 
d="M92 46v596l-69 23l2 53l208 12v-463l6 -1l162 165l-2 16l-65 4l2 48l143 -2l115 2v-47l-83 -9l-136 -128l204 -265l61 -14l-1 -38l-130 2l-149 -1v37l53 11l-1 5l-133 172l-46 -43v-133l62 -12l-1 -39l-127 3l-151 -3l-2 39z" />
    <glyph glyph-name="l" unicode="l" horiz-adv-x="322" 
d="M92 45v597l-69 23l2 53l208 12v-683l79 -12l-1 -38l-144 3l-150 -3l-3 38z" />
    <glyph glyph-name="m" unicode="m" horiz-adv-x="967" 
d="M233 283l-1 9l1 -244l68 -12l-1 -39l-143 3l-141 -3l-2 39l78 10v371l-69 23l2 53l207 12v-79l34 -10c20 61 78 94 136 94c77 0 138 -21 160 -80l39 -12c30 52 56 92 125 92c98 0 169 -49 169 -162v-300l68 -12l-1 -39l-143 3l-130 -3l-2 39l67 10v315
c0 47 -20 64 -71 64c-63 0 -104 -51 -111 -112v-265l67 -12l-1 -39l-132 3l-141 -3l-2 39l68 10v325c0 41 -22 54 -72 54c-63 0 -126 -60 -126 -142z" />
    <glyph glyph-name="n" unicode="n" horiz-adv-x="655" 
d="M92 46v371l-69 23l2 53l207 12v-88h34c23 61 76 93 139 93c95 0 166 -49 166 -162v-300l77 -12l-1 -39l-142 3l-145 -3l-2 39l72 10v315c0 47 -22 64 -72 64c-62 0 -123 -57 -126 -136v-241l79 -12l-1 -39l-153 3l-141 -3l-2 39z" />
    <glyph glyph-name="o" unicode="o" horiz-adv-x="637" 
d="M48 250c0 144 103 260 273 260c172 0 275 -116 275 -260s-103 -259 -275 -259c-170 0 -273 115 -273 259zM198 250c0 -101 28 -188 123 -188c97 0 125 87 125 188s-28 187 -125 187c-95 0 -123 -86 -123 -187z" />
    <glyph glyph-name="p" unicode="p" horiz-adv-x="651" 
d="M233 -171l79 -12l-1 -40l-134 3l-160 -3l-2 40l77 10v574l-74 32v50l204 22l5 -90h32c24 58 89 94 153 94c133 0 203 -128 203 -251c0 -129 -84 -269 -263 -269c-43 0 -86 13 -119 46v-206zM371 422c-64 0 -129 -46 -138 -113v-153c0 -43 31 -88 121 -88
c86 0 114 69 114 190c0 83 -28 164 -97 164z" />
    <glyph glyph-name="q" unicode="q" horiz-adv-x="654" 
d="M570 -173l77 -12l-1 -40l-154 3l-140 -3l-2 40l77 10v250h-35c-20 -51 -64 -80 -116 -80c-146 0 -232 116 -232 244c-7 126 88 266 275 266c49 0 98 -26 132 -54l91 57l35 -4c-5 -37 -7 -81 -7 -142v-535zM295 90c67 0 129 42 132 100v187c-5 23 -28 48 -110 48
c-95 0 -125 -101 -125 -186c0 -84 33 -149 103 -149z" />
    <glyph glyph-name="r" unicode="r" horiz-adv-x="464" 
d="M92 46v371l-69 23l2 53l186 12l-3 -86l34 -10c18 60 67 99 142 99c46 0 75 -26 75 -68c0 -37 -21 -74 -65 -74c-22 0 -59 24 -69 37c-50 -13 -89 -44 -93 -116l1 -239l78 -12l-1 -39l-143 3l-151 -3l-2 39z" />
    <glyph glyph-name="s" unicode="s" horiz-adv-x="477" 
d="M87 169c30 -86 102 -130 185 -130c36 0 48 16 48 49c0 38 -73 89 -118 112c-124 57 -155 104 -155 167c0 97 94 141 190 141c67 0 125 -43 138 -57l12 49h38v-157h-32c-18 65 -88 117 -169 117c-43 0 -52 -16 -53 -45c-1 -43 68 -74 123 -98c112 -48 151 -102 151 -169
c0 -105 -90 -159 -185 -159c-75 0 -142 47 -159 65l-13 -54h-33v168z" />
    <glyph glyph-name="t" unicode="t" horiz-adv-x="392" 
d="M16 440v37l69 15v126l142 17v-135h126v-60h-126v-286c0 -44 19 -71 56 -73c36 -3 58 11 73 32l19 -32c-45 -59 -93 -83 -158 -84c-49 -1 -131 30 -131 133l-1 310h-69z" />
    <glyph glyph-name="u" unicode="u" horiz-adv-x="643" 
d="M571 510v-453l68 -10l-2 -43l-203 -12l5 71l-37 9c-20 -53 -81 -85 -143 -85c-98 0 -168 38 -168 162v273l-79 25l1 53l218 10v-374c0 -49 21 -64 71 -64c62 0 124 56 127 136v214l-79 25l1 53z" />
    <glyph glyph-name="v" unicode="v" horiz-adv-x="592" 
d="M354 0h-79l-209 448l-60 17l1 37l137 -2l132 1v-39l-59 -11l1 -11l137 -286l83 287l-5 8l-57 14v37l111 -2l106 2v-39l-71 -14z" />
    <glyph glyph-name="w" unicode="w" horiz-adv-x="808" 
d="M10 460l2 41l137 -2l126 1v-45l-61 -11l1 -9l72 -242l105 307h78l132 -340l63 277l5 8l-74 13v41l99 -2l100 2v-43l-66 -14l-122 -442h-79l-130 330l-119 -330h-69l-140 443z" />
    <glyph glyph-name="x" unicode="x" horiz-adv-x="593" 
d="M232 439l93 -123l91 124v8l-66 11v40l100 -2l106 2v-39l-53 -14l-153 -162l178 -233l55 -17l-1 -36l-117 2l-162 -1v38l65 11l-1 11l-105 137l-99 -138v-8l60 -11v-39l-95 2l-106 -2v38l52 14l165 175l-167 220l-55 17l1 37l147 -2l132 1v-36l-66 -14z" />
    <glyph glyph-name="y" unicode="y" horiz-adv-x="591" 
d="M202 -137c29 0 37 8 49 28l37 109h-24l-209 448l-60 17l1 37l137 -2l132 1v-39l-59 -11l1 -11l137 -286l83 287l-5 8l-57 14v37l111 -2l106 2v-39l-71 -14l-152 -403h9l-56 -154c-36 -96 -96 -125 -142 -125c-43 0 -85 11 -97 54c-7 28 13 62 54 62c45 0 58 -9 75 -18z
" />
    <glyph glyph-name="z" unicode="z" horiz-adv-x="498" 
d="M52 500h413v-25l-261 -409v-3h157c64 0 77 52 90 99h37l-5 -162h-455v39l260 397v4h-117c-54 0 -75 -50 -87 -101l-43 2z" />
    <glyph glyph-name="braceleft" unicode="{" horiz-adv-x="359" 
d="M122 288c78 -26 100 -155 92 -219c-17 -142 10 -205 102 -246l-8 -41c-151 24 -232 106 -209 287c10 89 8 192 -72 211v16c80 19 83 122 72 211c-23 181 58 263 209 287l8 -41c-92 -41 -119 -104 -102 -246c8 -64 -14 -193 -92 -219z" />
    <glyph glyph-name="bar" unicode="|" horiz-adv-x="266" 
d="M158 731v-899h-46v899h46z" />
    <glyph glyph-name="braceright" unicode="}" horiz-adv-x="359" 
d="M241 288c-79 26 -101 155 -92 219c17 142 -11 205 -101 246l6 41c151 -24 233 -106 211 -287c-11 -89 -9 -192 71 -211v-16c-80 -19 -83 -122 -71 -211c22 -181 -60 -263 -211 -287l-6 41c90 41 118 104 101 246c-9 64 13 193 92 219z" />
    <glyph glyph-name="asciitilde" unicode="~" horiz-adv-x="705" 
d="M414 331c22 -27 51 -60 112 -60c38 0 73 23 87 70c-8 13 -20 24 -21 39c0 22 14 46 44 46c26 0 38 -33 31 -61c-19 -102 -111 -182 -193 -182c-81 0 -140 38 -188 99c-21 24 -45 60 -101 60c-35 0 -70 -23 -86 -70c9 -14 20 -25 22 -39c-1 -22 -15 -46 -46 -46
c-27 0 -37 33 -30 61c18 102 103 182 195 182c75 0 132 -37 174 -99z" />
    <glyph glyph-name="exclamdown" unicode="&#xa1;" horiz-adv-x="340" 
d="M125 284l-44 -427c-2 -50 29 -82 73 -81c45 1 79 34 76 81l-40 427c-1 18 -64 20 -65 0zM223 452c0 -33 -29 -56 -70 -56c-40 0 -71 23 -71 56s31 54 71 54c41 0 70 -21 70 -54z" />
    <glyph glyph-name="cent" unicode="&#xa2;" horiz-adv-x="518" 
d="M367 429c-2 6 -10 12 -22 15l-44 -380c6 -1 11 -1 17 -1c70 0 107 12 136 64l40 -17c-29 -70 -109 -119 -201 -120l-11 -98h-46l12 101c-149 18 -216 137 -216 241c0 134 92 276 255 276c7 0 15 0 22 -1l14 112l42 -1l-14 -117c46 -9 85 -30 108 -62
c26 -39 14 -109 -45 -109c-42 0 -57 32 -57 62c0 18 2 16 10 35zM180 244c0 -78 24 -142 78 -168l44 370c-90 -9 -122 -88 -122 -202z" />
    <glyph glyph-name="sterling" unicode="&#xa3;" horiz-adv-x="605" 
d="M314 720c84 0 134 -22 156 -36l11 30h31v-160h-25c-18 55 -57 101 -145 101c-82 0 -95 -61 -87 -186l5 -58c1 -16 1 -31 1 -45h194l6 -47h-202c-8 -113 -42 -186 -77 -233c20 5 39 7 53 8c100 3 189 -40 228 -40c27 0 61 14 61 23c-6 8 -14 25 -14 39c0 24 12 43 43 43
c22 0 32 -20 32 -48c0 -46 -79 -140 -181 -140c-62 -2 -120 30 -181 32c-21 0 -26 -2 -12 4l-149 -15l-9 25h-1s1 0 1 1l-9 28c9 3 25 9 45 15c28 51 34 127 29 258h-65l-6 47h69c-1 6 -1 13 -1 20l-3 60c-7 136 52 274 202 274z" />
    <glyph glyph-name="yen" unicode="&#xa5;" horiz-adv-x="696" 
d="M702 670l-58 -13l-195 -329h138v-37h-150v-77h150v-37h-150v-121l78 -13v-45l-156 2l-143 -2v45l76 11v123h-163v37h163v77h-163v37h156l-204 330l-64 13v45l132 -2l155 2v-45l-66 -11v-10l172 -262l136 257v14l-70 11v46l140 -2l86 2v-46z" />
    <glyph glyph-name="brokenbar" unicode="&#xa6;" horiz-adv-x="266" 
d="M158 -168h-46v383h46v-383zM158 731v-354h-46v354h46z" />
    <glyph glyph-name="section" unicode="&#xa7;" horiz-adv-x="574" 
d="M81 552c0 111 117 167 207 167c76 0 130 -24 151 -43l11 36h27v-178h-23c-19 80 -81 128 -164 128c-66 0 -101 -14 -101 -62c0 -68 87 -98 162 -145c112 -62 180 -111 180 -214c0 -87 -70 -132 -159 -143c86 -54 127 -109 127 -180c0 -108 -100 -163 -210 -163
c-79 0 -132 24 -173 55l-8 -45h-26v187l25 1c31 -97 73 -138 179 -138c55 0 89 20 89 69c0 80 -81 114 -142 148c-136 60 -195 113 -195 199c0 84 62 138 130 163c-66 49 -87 100 -87 158zM419 186c0 80 -103 121 -162 156c-21 10 -39 19 -55 29c-30 -14 -45 -43 -45 -90
c0 -69 95 -112 169 -156c7 -4 14 -7 20 -11c44 6 73 27 73 72z" />
    <glyph glyph-name="dieresis" unicode="&#xa8;" horiz-adv-x="491" 
d="M275 680c0 28 25 53 66 53s67 -25 67 -53c0 -27 -26 -50 -67 -50s-66 23 -66 50zM68 680c0 28 25 53 66 53s67 -25 67 -53c0 -27 -26 -50 -67 -50s-66 23 -66 50z" />
    <glyph glyph-name="ordfeminine" unicode="&#xaa;" horiz-adv-x="468" 
d="M125 582c-39 0 -51 45 -31 70c32 43 83 70 137 70c81 0 137 -30 137 -124v-160c0 -25 4 -42 20 -42c12 0 25 4 35 17l11 -7c-16 -26 -52 -48 -96 -46c-42 4 -61 27 -61 61v3c-18 -42 -61 -64 -111 -64c-75 0 -118 36 -118 80c0 56 39 90 170 111l59 10v41
c0 51 -20 72 -67 72c-21 0 -43 -8 -58 -23c7 -10 16 -17 16 -33c0 -23 -21 -36 -43 -36zM188 421c32 0 70 7 89 46v61l-54 -10c-66 -14 -82 -37 -82 -66c0 -22 21 -31 47 -31z" />
    <glyph glyph-name="guillemotleft" unicode="&#xab;" horiz-adv-x="501" 
d="M248 379l-101 -186l101 -187l-44 -9l-146 189v16l146 189zM446 379l-101 -186l101 -187l-44 -9l-146 189v16l146 189z" />
    <glyph glyph-name="macron" unicode="&#xaf;" horiz-adv-x="464" 
d="M58 658v56h352v-56h-352z" />
    <glyph glyph-name="degree" unicode="&#xb0;" horiz-adv-x="312" 
d="M43 612c0 61 50 109 115 109s116 -48 116 -109s-51 -109 -116 -109s-115 48 -115 109zM77 612c0 -42 37 -76 81 -76s81 34 81 76s-37 76 -81 76s-81 -34 -81 -76z" />
    <glyph glyph-name="plusminus" unicode="&#xb1;" 
d="M234 500h55v-174h196v-53h-196v-175h-55v175h-197v53h197v174zM37 1v43h448v-43h-448z" />
    <glyph glyph-name="twosuperior" unicode="&#xb2;" horiz-adv-x="389" 
d="M175 382h186l8 20l16 -1l-15 -112h-316l-1 32c164 145 197 214 197 287c0 28 -20 51 -67 51c-26 0 -50 -8 -76 -24c8 -14 17 -22 17 -36c0 -20 -18 -38 -46 -38c-34 0 -47 47 -29 78c35 50 89 86 156 86c96 0 162 -40 162 -125c0 -76 -79 -141 -192 -218z" />
    <glyph glyph-name="threesuperior" unicode="&#xb3;" horiz-adv-x="430" 
d="M153 464l-20 39l-10 17c138 20 148 55 148 102c0 12 -32 43 -79 43c-17 0 -39 -9 -54 -18c1 -10 2 -12 2 -25c0 -26 -18 -37 -45 -37c-38 0 -47 38 -29 67c29 53 107 72 157 72c78 0 164 -30 164 -104c0 -52 -48 -89 -152 -107l2 -6c117 0 171 -50 171 -97
c0 -88 -104 -122 -208 -122c-71 0 -136 33 -154 65c-23 38 0 74 38 74c27 0 38 -14 38 -31c0 -11 -3 -23 -4 -25c7 -22 74 -27 72 -27c55 0 98 12 98 68c0 50 -45 63 -135 52z" />
    <glyph glyph-name="acute" unicode="&#xb4;" horiz-adv-x="303" 
d="M245 649l-122 -96l-40 29l80 125c7 11 17 17 27 19c24 5 67 -23 69 -45c2 -11 -3 -22 -14 -32z" />
    <glyph glyph-name="mu" unicode="&#xb5;" horiz-adv-x="654" 
d="M110 -181v303c-1 9 -1 17 -1 27v267l-68 23v4l-11 4l1 53l218 10v-6h2v-391c6 -31 28 -41 69 -41c62 0 124 56 127 136v214l-79 25l1 53l220 10v-453l68 -10l-2 -43l-203 -12l5 71l-37 9c-20 -53 -81 -85 -143 -85c-9 0 -18 1 -26 1v-167l79 -12l-1 -38l-144 3l-150 -3
l-3 38z" />
    <glyph glyph-name="mu" unicode="&#x3bc;" horiz-adv-x="654" 
d="M110 -181v303c-1 9 -1 17 -1 27v267l-68 23v4l-11 4l1 53l218 10v-6h2v-391c6 -31 28 -41 69 -41c62 0 124 56 127 136v214l-79 25l1 53l220 10v-453l68 -10l-2 -43l-203 -12l5 71l-37 9c-20 -53 -81 -85 -143 -85c-9 0 -18 1 -26 1v-167l79 -12l-1 -38l-144 3l-150 -3
l-3 38z" />
    <glyph glyph-name="paragraph" unicode="&#xb6;" horiz-adv-x="558" 
d="M267 36l73 13v254c-166 8 -302 82 -302 211c0 114 126 200 332 200h196l1 -41l-74 -9v-617l73 -11v-38l-73 2h-95l-131 -2v38zM188 511c0 -79 37 -156 152 -163v312c-106 -11 -152 -75 -152 -149zM387 662v-314h58v314h-58zM387 43l58 2v258h-58v-260z" />
    <glyph glyph-name="periodcentered" unicode="&#xb7;" horiz-adv-x="224" 
d="M20 312c0 33 30 63 79 63c48 0 79 -30 79 -63s-31 -60 -79 -60c-49 0 -79 27 -79 60z" />
    <glyph glyph-name="cedilla" unicode="&#xb8;" horiz-adv-x="518" 
d="M217 -119l38 144h61l-21 -77s23 9 47 9c53 0 93 -29 93 -81c0 -162 -223 -148 -223 -148l-2 56s138 -4 138 60c0 30 -28 38 -59 38c-25 0 -44 -4 -63 -10z" />
    <glyph glyph-name="onesuperior" unicode="&#xb9;" horiz-adv-x="302" 
d="M227 338l69 -9v-48l-123 2l-122 -2v48l69 7v294h-80v35c45 2 91 17 113 51h74v-378z" />
    <glyph glyph-name="ordmasculine" unicode="&#xba;" horiz-adv-x="447" 
d="M48 546c0 99 68 178 178 178s177 -79 177 -178c0 -104 -67 -186 -177 -186s-178 82 -178 186zM149 546c0 -75 19 -137 77 -137c57 0 76 62 76 137c0 71 -19 129 -76 129c-58 0 -77 -58 -77 -129z" />
    <glyph glyph-name="guillemotright" unicode="&#xbb;" horiz-adv-x="501" 
d="M58 9l102 186l-102 187l44 9l146 -189v-16l-146 -189zM256 9l102 186l-102 187l44 9l146 -189v-16l-146 -189z" />
    <glyph glyph-name="onequarter" unicode="&#xbc;" horiz-adv-x="862" 
d="M172 0l445 714h72l-447 -714h-70zM417 110v23h1l271 302l57 -1v-276h67v-48h-67v-66l56 -9v-35l-111 2l-109 -2v35l56 8v67h-221zM638 310l-144 -152h144v152zM266 338l69 -9v-48l-123 2l-122 -2v48l69 7v294h-80v35c45 2 91 17 113 51h74v-378z" />
    <glyph glyph-name="onehalf" unicode="&#xbd;" horiz-adv-x="920" 
d="M266 338l69 -9v-48l-123 2l-122 -2v48l69 7v294h-80v35c45 2 91 17 113 51h74v-378zM167 0l445 714h72l-447 -714h-70zM645 92h186l8 20l16 -1l-15 -112h-316l-1 32c164 145 197 214 197 287c0 28 -20 51 -67 51c-26 0 -50 -8 -76 -24c8 -14 17 -22 17 -36
c0 -20 -18 -38 -46 -38c-34 0 -47 47 -29 78c35 50 89 86 156 86c96 0 162 -40 162 -125c0 -76 -79 -141 -192 -218z" />
    <glyph glyph-name="threequarters" unicode="&#xbe;" horiz-adv-x="992" 
d="M207 464l-20 39l-10 17c138 20 148 55 148 102c0 12 -32 43 -79 43c-17 0 -39 -9 -54 -18c1 -10 2 -12 2 -25c0 -26 -18 -37 -45 -37c-38 0 -47 38 -29 67c29 53 107 72 157 72c78 0 164 -30 164 -104c0 -52 -48 -89 -152 -107l2 -6c117 0 171 -50 171 -97
c0 -88 -104 -122 -208 -122c-71 0 -136 33 -154 65c-23 38 0 74 38 74c27 0 38 -14 38 -31c0 -11 -3 -23 -4 -25c7 -22 74 -27 72 -27c55 0 98 12 98 68c0 50 -45 63 -135 52zM302 0l445 714h72l-447 -714h-70zM548 110v23h1l271 302l57 -1v-276h67v-48h-67v-66l56 -9v-35
l-111 2l-109 -2v35l56 8v67h-221zM769 310l-144 -152h144v152z" />
    <glyph glyph-name="questiondown" unicode="&#xbf;" horiz-adv-x="522" 
d="M209 178v127c0 26 116 25 116 0v-114c-105 -43 -151 -144 -151 -226c0 -84 33 -130 102 -130c36 0 68 6 98 30c-19 18 -31 43 -31 62c0 38 25 73 75 73c48 0 64 -68 38 -115c-46 -64 -129 -110 -218 -110c-122 0 -207 48 -207 160c0 104 29 167 178 243zM336 453
c0 -33 -30 -56 -70 -56c-41 0 -70 23 -70 56s29 54 70 54c40 0 70 -21 70 -54z" />
    <glyph glyph-name="AE" unicode="&#xc6;" horiz-adv-x="1069" 
d="M543 714h481l-1 -187h-44l2 31c5 75 -71 94 -170 93l-111 -1v-258h16c74 -1 128 10 128 63v20h32v-232h-32v20c0 52 -54 70 -128 69h-16v-270h144c99 -1 194 15 171 97l-10 28h45l7 -187h-454l-125 -2v51l74 11v165h-284l-116 -165l71 -11v-51l-112 2l-95 -2v51l62 13z
M306 279h246v347z" />
    <glyph glyph-name="Eth" unicode="&#xd0;" horiz-adv-x="766" 
d="M26 344v49h81v265l-81 9l2 47h308c244 0 385 -162 385 -348c0 -239 -167 -366 -385 -366h-163l-145 -2v45l79 11v290h-81zM251 62l76 -1c189 -4 244 164 244 302c0 133 -71 290 -254 289l-66 -1v-258h44v-49h-44v-282z" />
    <glyph glyph-name="multiply" unicode="&#xd7;" 
d="M397 460l40 -38l-136 -128l136 -128l-40 -38l-136 128l-135 -128l-41 37l136 129l-136 129l41 37l135 -128z" />
    <glyph glyph-name="Oslash" unicode="&#xd8;" horiz-adv-x="839" 
d="M208 -97l49 118c-130 55 -207 182 -207 336c0 208 141 367 361 367c48 0 93 -8 133 -22l42 99h49l-50 -117c117 -60 185 -182 185 -327c0 -208 -139 -366 -359 -366c-40 0 -77 6 -112 15l-43 -103h-48zM213 357c0 -109 23 -201 80 -251l217 515c-27 18 -59 29 -99 29
c-144 0 -198 -129 -198 -293zM608 357c0 96 -18 180 -62 233l-215 -509c23 -10 49 -16 80 -16c143 0 197 127 197 292z" />
    <glyph glyph-name="Thorn" unicode="&#xde;" horiz-adv-x="722" 
d="M276 56l72 -13v-45l-134 2l-160 -2v45l74 11v604l-75 9l1 47h306v-49l-84 -7v-94h92c201 0 295 -78 295 -180c0 -124 -124 -191 -295 -191h-92v-137zM359 499h-83v-242h95c113 -4 130 63 130 124c0 60 -28 119 -142 118z" />
    <glyph glyph-name="germandbls" unicode="&#xdf;" horiz-adv-x="610" 
d="M217 548v-548l-201 -3l-2 39l61 10v452c0 136 83 254 257 254c120 0 203 -55 203 -147c0 -78 -38 -130 -92 -169c75 -98 141 -149 141 -267c0 -108 -90 -178 -188 -178c-81 0 -130 40 -145 62c-8 28 2 57 21 57s36 -9 36 -30c0 -2 0 -8 -1 -12c18 -12 43 -19 69 -19
c32 0 71 20 71 81c0 57 -50 146 -116 223c-14 16 -10 27 5 41c69 68 81 138 81 204c0 54 -26 98 -97 98c-76 0 -103 -60 -103 -148z" />
    <glyph glyph-name="ae" unicode="&#xe6;" horiz-adv-x="831" 
d="M138 311c-68 0 -63 69 -38 109c46 56 128 90 207 90c66 0 120 -12 153 -45c39 28 88 45 146 45c109 0 215 -56 215 -200v-58l-321 1v-60c11 -72 53 -137 139 -137c65 0 120 25 151 61l36 -27c-41 -59 -113 -100 -223 -100c-89 0 -154 36 -196 86
c-39 -52 -104 -82 -183 -82c-106 0 -170 52 -170 116c0 79 56 129 238 165l60 13v68c0 54 -18 77 -76 77c-31 0 -70 -7 -97 -23c10 -14 15 -22 15 -44c0 -34 -26 -55 -56 -55zM604 447c-65 0 -95 -47 -104 -140v-5h183c0 116 -26 145 -79 145zM284 86c34 0 72 4 101 20
c-24 41 -36 87 -36 130v8l-50 -11c-76 -21 -101 -53 -101 -97c0 -33 39 -50 86 -50z" />
    <glyph glyph-name="eth" unicode="&#xf0;" horiz-adv-x="621" 
d="M215 534l-19 43l110 42c-35 24 -80 42 -137 51l5 52c81 -7 159 -29 224 -68l123 47l19 -43l-96 -37c81 -66 135 -167 135 -311c0 -135 -74 -315 -272 -315c-159 0 -269 120 -269 241c0 147 83 257 229 257c24 0 68 4 115 -68l32 19c-11 50 -32 100 -69 140zM285 59
c112 0 140 134 142 241c-12 75 -73 105 -133 105c-72 0 -102 -62 -102 -163c0 -110 16 -183 93 -183z" />
    <glyph glyph-name="divide" unicode="&#xf7;" 
d="M26 275v53h469v-53h-469zM167 161c0 33 30 63 79 63c48 0 79 -30 79 -63s-31 -60 -79 -60c-49 0 -79 27 -79 60zM165 462c0 33 30 63 79 63c48 0 79 -30 79 -63s-31 -60 -79 -60c-49 0 -79 27 -79 60z" />
    <glyph glyph-name="oslash" unicode="&#xf8;" horiz-adv-x="617" 
d="M130 -81l51 103c-85 44 -133 129 -133 228c0 144 103 260 273 260c34 0 66 -5 95 -13l39 79h42l-46 -93c92 -42 145 -130 145 -233c0 -144 -103 -259 -275 -259c-39 0 -75 6 -106 17l-44 -89h-41zM446 250c0 59 -10 113 -37 148l-157 -315c18 -13 40 -21 69 -21
c97 0 125 87 125 188zM198 250c0 -53 8 -102 28 -136l153 309c-16 9 -35 14 -58 14c-95 0 -123 -86 -123 -187z" />
    <glyph glyph-name="thorn" unicode="&#xfe;" horiz-adv-x="651" 
d="M233 -171l73 -12l-1 -40l-128 3l-154 -3l-2 40l71 10v811l-74 19v50l215 22v-326c28 62 90 106 155 106c149 0 227 -128 227 -251c0 -129 -88 -269 -275 -269c-38 0 -77 10 -107 35v-195zM359 422c-59 0 -118 -34 -126 -81v-206c0 -39 28 -75 109 -75
c96 0 126 69 126 198c0 83 -31 164 -109 164z" />
    <glyph glyph-name="dotlessi" unicode="&#x131;" horiz-adv-x="322" 
d="M92 33v410l-57 10l2 40l195 12v-470l74 -12l-1 -26l-138 3l-144 -3l-3 26z" />
    <glyph glyph-name="Lslash" unicode="&#x141;" horiz-adv-x="639" 
d="M261 658v-247l87 32l12 -36l-99 -36v-309h122c100 -1 156 6 173 104l5 31h53l-18 -197h-422l-146 -2v45l80 11v262l-67 -24l-12 36l79 28v302l-81 9l1 47l144 -3l166 3v-47z" />
    <glyph glyph-name="lslash" unicode="&#x142;" horiz-adv-x="327" 
d="M33 312l-11 36l78 34v260l-69 23l2 53l208 12v-287l67 30l11 -36l-78 -34v-356l79 -12l-1 -38l-144 3l-150 -3l-3 38l78 10v296z" />
    <glyph glyph-name="OE" unicode="&#x152;" horiz-adv-x="1068" 
d="M551 714h472l-11 -187h-32l12 31c33 79 -76 95 -182 94l-111 -2v-264h15c75 -1 129 16 129 69v20h32v-232h-32v20c0 52 -54 70 -129 69h-15v-271h144c106 -1 215 16 181 95l-12 31h33l11 -187h-504c-34 -4 -76 -7 -124 -7c-154 0 -374 109 -374 365s220 365 374 365
c47 0 89 -5 123 -11v2zM221 359c0 -182 81 -304 209 -304c56 0 94 10 121 26v561c-28 12 -67 19 -121 19c-128 0 -209 -123 -209 -302z" />
    <glyph glyph-name="oe" unicode="&#x153;" horiz-adv-x="955" 
d="M48 250c0 144 103 260 273 260c91 0 162 -32 210 -84c43 50 106 84 188 84c109 0 215 -56 215 -200v-58l-324 1v-17c0 -86 39 -180 142 -180c65 0 120 25 151 61l36 -27c-41 -59 -113 -100 -223 -100c-85 0 -148 32 -190 79c-48 -48 -117 -78 -205 -78
c-170 0 -273 115 -273 259zM198 250c0 -101 28 -188 123 -188c97 0 125 87 125 188s-28 187 -125 187c-95 0 -123 -86 -123 -187zM717 447c-67 0 -96 -48 -105 -145h184c0 116 -26 145 -79 145z" />
    <glyph glyph-name="florin" unicode="&#x192;" horiz-adv-x="356" 
d="M15 447v34l60 10v27c0 126 73 234 216 234c55 0 113 -15 124 -59c9 -26 -11 -48 -40 -49c-39 -2 -64 23 -67 52c-5 3 -13 6 -29 6c-46 0 -63 -58 -63 -134v-68h116v-53h-116v-388c0 -165 -62 -281 -217 -281c-50 0 -89 24 -89 48c0 20 16 38 45 38c41 0 41 -26 89 -26
c23 0 31 40 31 149v460h-60z" />
    <glyph glyph-name="circumflex" unicode="&#x2c6;" horiz-adv-x="350" 
d="M163 711h34l124 -109h-90l-52 42l-55 -42h-87z" />
    <glyph glyph-name="caron" unicode="&#x2c7;" horiz-adv-x="350" 
d="M194 606h-34l-133 109h80l71 -55l67 55h76z" />
    <glyph glyph-name="breve" unicode="&#x2d8;" horiz-adv-x="393" 
d="M199 599c-72 0 -132 49 -141 115h69c7 -36 37 -62 72 -62c42 0 76 26 84 62h64c-11 -66 -69 -115 -148 -115z" />
    <glyph glyph-name="dotaccent" unicode="&#x2d9;" horiz-adv-x="224" 
d="M20 678c0 33 30 63 79 63c48 0 79 -30 79 -63s-31 -60 -79 -60c-49 0 -79 27 -79 60z" />
    <glyph glyph-name="ring" unicode="&#x2da;" horiz-adv-x="312" 
d="M69 637c0 46 41 84 89 84s89 -38 89 -84s-41 -84 -89 -84s-89 38 -89 84zM105 637c0 -27 25 -51 53 -51c29 0 55 24 55 51s-26 51 -55 51c-28 0 -53 -24 -53 -51z" />
    <glyph glyph-name="ogonek" unicode="&#x2db;" horiz-adv-x="346" 
d="M191 27l21 -40c-48 -16 -68 -43 -68 -65c0 -39 20 -63 60 -63c29 0 50 12 62 25l15 -34c-18 -23 -63 -47 -119 -47c-48 0 -93 36 -93 90c0 46 36 107 122 134z" />
    <glyph glyph-name="tilde" unicode="&#x2dc;" horiz-adv-x="455" 
d="M293 614c-68 11 -74 37 -142 49c-35 5 -64 -15 -60 -54l-49 5c-11 66 52 112 126 101c67 -11 73 -37 141 -49c36 -5 64 15 60 54l49 -5c12 -66 -52 -112 -125 -101z" />
    <glyph glyph-name="hungarumlaut" unicode="&#x2dd;" horiz-adv-x="461" 
d="M227 661l-153 -96l-16 17l126 125c10 11 22 17 34 19c25 5 40 -11 35 -33c-2 -11 -12 -22 -26 -32zM381 661l-153 -96l-15 17l126 125c9 11 22 17 32 19c25 5 40 -11 35 -33c-2 -11 -12 -22 -25 -32z" />
    <glyph glyph-name="Delta" unicode="&#x394;" horiz-adv-x="720" 
d="M48 -2l290 713h53l286 -711h-588zM334 601l-215 -543h431z" />
    <glyph glyph-name="Delta" unicode="&#x2206;" horiz-adv-x="720" 
d="M48 -2l290 713h53l286 -711h-588zM334 601l-215 -543h431z" />
    <glyph glyph-name="endash" unicode="&#x2013;" horiz-adv-x="579" 
d="M58 276v63h470v-63h-470z" />
    <glyph glyph-name="emdash" unicode="&#x2014;" horiz-adv-x="684" 
d="M58 276v63h576v-63h-576z" />
    <glyph glyph-name="quoteleft" unicode="&#x2018;" horiz-adv-x="237" 
d="M178 560c0 -33 -25 -54 -60 -54c-42 0 -72 35 -72 87c0 94 75 177 110 195l30 -29c-33 -31 -66 -67 -69 -136c34 -5 61 -34 61 -63z" />
    <glyph glyph-name="quoteright" unicode="&#x2019;" horiz-adv-x="237" 
d="M59 670c0 33 25 54 60 54c42 0 72 -35 72 -87c0 -94 -75 -177 -110 -195l-30 29c33 31 66 67 69 136c-34 5 -61 34 -61 63z" />
    <glyph glyph-name="quotesinglbase" unicode="&#x201a;" horiz-adv-x="237" 
d="M59 45c0 33 25 54 60 54c42 0 72 -35 72 -87c0 -94 -75 -177 -110 -195l-30 29c33 31 66 67 69 136c-34 5 -61 34 -61 63z" />
    <glyph glyph-name="quotedblleft" unicode="&#x201c;" horiz-adv-x="420" 
d="M361 550c0 -33 -25 -54 -60 -54c-42 0 -72 35 -72 87c0 94 75 177 110 195l30 -29c-33 -31 -66 -67 -69 -136c34 -5 61 -34 61 -63zM178 550c0 -33 -25 -54 -60 -54c-42 0 -72 35 -72 87c0 94 75 177 110 195l30 -29c-33 -31 -66 -67 -69 -136c34 -5 61 -34 61 -63z" />
    <glyph glyph-name="quotedblright" unicode="&#x201d;" horiz-adv-x="424" 
d="M59 670c0 33 25 54 60 54c42 0 72 -35 72 -87c0 -94 -75 -177 -110 -195l-30 29c33 31 66 67 69 136c-34 5 -61 34 -61 63zM246 670c0 33 25 54 60 54c42 0 72 -35 72 -87c0 -94 -75 -177 -110 -195l-30 29c33 31 66 67 69 136c-34 5 -61 34 -61 63z" />
    <glyph glyph-name="quotedblbase" unicode="&#x201e;" horiz-adv-x="412" 
d="M59 45c0 33 25 54 60 54c42 0 72 -35 72 -87c0 -94 -75 -177 -110 -195l-30 29c33 31 66 67 69 136c-34 5 -61 34 -61 63zM234 45c0 33 25 54 60 54c42 0 72 -35 72 -87c0 -94 -75 -177 -110 -195l-30 29c33 31 66 67 69 136c-34 5 -61 34 -61 63z" />
    <glyph glyph-name="dagger" unicode="&#x2020;" horiz-adv-x="391" 
d="M37 500h133v214h47v-214h142v-39h-142v-461h-47v461h-133v39z" />
    <glyph glyph-name="daggerdbl" unicode="&#x2021;" horiz-adv-x="391" 
d="M37 500h133v214h47v-214h142v-44h-142v-412h142v-44h-142v-239h-47v239h-133v44h133v412h-133v44z" />
    <glyph glyph-name="bullet" unicode="&#x2022;" horiz-adv-x="347" 
d="M58 313c0 64 51 104 118 104c68 0 117 -40 117 -104c0 -65 -49 -109 -117 -109c-67 0 -118 44 -118 109z" />
    <glyph glyph-name="ellipsis" unicode="&#x2026;" horiz-adv-x="653" 
d="M20 53c0 33 30 63 79 63c48 0 79 -30 79 -63s-31 -60 -79 -60c-49 0 -79 27 -79 60zM234 53c0 33 30 63 79 63c48 0 79 -30 79 -63s-31 -60 -79 -60c-49 0 -79 27 -79 60zM448 53c0 33 30 63 79 63c48 0 79 -30 79 -63s-31 -60 -79 -60c-49 0 -79 27 -79 60z" />
    <glyph glyph-name="perthousand" unicode="&#x2030;" horiz-adv-x="1164" 
d="M100 566c0 87 68 158 178 158s178 -71 178 -158c0 -92 -68 -166 -178 -166s-178 75 -178 166zM211 566c0 -72 16 -124 67 -124c50 0 67 52 67 124c0 67 -17 115 -67 115c-51 0 -67 -48 -67 -115zM97 170l702 491l25 -27l-702 -492zM359 158c0 87 68 158 178 158
s177 -71 177 -158c0 -92 -67 -166 -177 -166s-178 75 -178 166zM470 158c0 -72 16 -124 67 -124c49 0 66 52 66 124c0 67 -17 115 -66 115c-51 0 -67 -48 -67 -115zM764 158c0 87 67 158 177 158s178 -71 178 -158c0 -92 -68 -166 -178 -166s-177 75 -177 166zM875 158
c0 -72 16 -124 66 -124s67 52 67 124c0 67 -17 115 -67 115s-66 -48 -66 -115z" />
    <glyph glyph-name="guilsinglleft" unicode="&#x2039;" horiz-adv-x="303" 
d="M248 379l-101 -186l101 -187l-44 -9l-146 189v16l146 189z" />
    <glyph glyph-name="guilsinglright" unicode="&#x203a;" horiz-adv-x="303" 
d="M58 9l102 186l-102 187l44 9l146 -189v-16l-146 -189z" />
    <glyph glyph-name="fraction" unicode="&#x2044;" horiz-adv-x="532" 
d="M11 0l445 714h72l-447 -714h-70z" />
    <glyph glyph-name="foursuperior" unicode="&#x2074;" horiz-adv-x="427" 
d="M32 397v23h1l271 302l57 -1v-276h67v-48h-67v-66l56 -9v-35l-111 2l-109 -2v35l56 8v67h-221zM253 597l-144 -152h144v152z" />
    <glyph glyph-name="Euro" unicode="&#x20ac;" horiz-adv-x="753" 
d="M29 390v34h67c33 209 222 299 357 299c94 0 171 -37 197 -61l16 53h45v-203h-33c-37 55 -92 137 -223 137c-104 0 -180 -89 -198 -225h339v-34h-342c-1 -10 -1 -21 -1 -31c0 -13 0 -26 1 -38h342v-33h-338c19 -136 94 -222 197 -222c131 0 186 82 223 138h33v-203h-45
l-16 53c-26 -24 -103 -61 -197 -61c-134 0 -322 89 -357 295h-67v33h63c-1 12 -1 24 -1 37c0 11 0 21 1 32h-63z" />
    <glyph glyph-name="trademark" unicode="&#x2122;" horiz-adv-x="605" 
d="M542 527l22 -5v-10l-54 1l-53 -1v10l23 3v130l-68 -142h-9l-83 143v-129l25 -5v-10l-37 1l-33 -1v10l24 3v157c0 16 -12 20 -24 22l1 10h72l78 -126l60 126h78v-10l-22 -3v-174zM199 698h-15v-173l23 -2l-1 -11l-52 1l-53 -1v11l22 2v173h-17c-28 0 -45 -8 -45 -33v-9
h-13v58h207v-58h-13v9c0 25 -16 33 -43 33z" />
    <glyph glyph-name="partialdiff" unicode="&#x2202;" horiz-adv-x="621" 
d="M262 -5c-161 0 -253 120 -233 241c24 147 129 251 272 251c52 0 117 -28 136 -106c17 146 16 329 -226 256l1 54c320 102 411 -106 369 -381c-22 -135 -123 -315 -319 -315zM254 53c119 0 158 140 173 247c0 70 -52 110 -109 110c-75 0 -118 -71 -134 -168
c-13 -110 0 -189 70 -189z" />
    <glyph glyph-name="minus" unicode="&#x2212;" horiz-adv-x="537" 
d="M37 273v53h469v-53h-469z" />
    <glyph glyph-name="integral" unicode="&#x222b;" horiz-adv-x="356" 
d="M75 -6v524c0 126 73 234 216 234c55 0 113 -15 124 -59c9 -26 -11 -48 -40 -49c-39 -2 -64 16 -67 45c-5 3 -13 6 -29 6c-46 0 -63 -51 -63 -127v-509c0 -165 -62 -281 -217 -281c-50 0 -89 24 -89 48c0 20 16 38 45 38c41 0 41 -19 89 -19c23 0 31 39 31 149z" />
    <glyph glyph-name="approxequal" unicode="&#x2248;" horiz-adv-x="562" 
d="M366 321c-94 11 -103 37 -197 49c-48 5 -88 -15 -82 -54l-21 5c-13 66 45 112 126 101c93 -11 102 -37 197 -49c48 -5 88 15 82 54l21 -5c13 -66 -44 -112 -126 -101zM376 191c-94 11 -102 37 -197 49c-47 5 -88 -15 -82 -54l-21 5c-12 66 45 112 126 101
c94 -11 102 -37 198 -49c48 -5 88 15 81 54l21 -5c13 -66 -44 -112 -126 -101z" />
    <glyph glyph-name="notequal" unicode="&#x2260;" horiz-adv-x="558" 
d="M48 366v53h256l41 91h64l-41 -91h148v-53h-172l-49 -110h221v-53h-244l-44 -99h-64l44 99h-160v53h183l49 110h-232z" />
    <glyph glyph-name="lessequal" unicode="&#x2264;" 
d="M462 428l-333 -136l333 -131v-61l-402 168v47l402 169v-56zM37 0v43h448v-43h-448z" />
    <glyph glyph-name="greaterequal" unicode="&#x2265;" 
d="M60 156l332 136l-332 131v61l402 -168v-47l-402 -169v56zM37 0v43h448v-43h-448z" />
    <glyph glyph-name="ct.liga" horiz-adv-x="870" 
d="M524 440v37l69 15v126h3c-9 7 -82 57 -172 57c-71 0 -123 -28 -123 -76c0 -50 42 -83 88 -103l-1 -4c30 -11 55 -28 71 -51c26 -39 14 -109 -45 -109c-42 0 -57 32 -57 62c0 18 2 16 10 35c-3 10 -20 18 -47 18c-103 0 -140 -81 -140 -203c0 -102 42 -181 138 -181
c70 0 107 12 136 64l40 -17c-29 -70 -110 -120 -204 -120c-178 0 -258 131 -258 244c0 134 92 276 255 276c9 0 18 -1 26 -1l3 8c-56 25 -86 58 -86 99c0 45 45 110 162 110c160 0 215 -34 348 -82v-45h-5v-99h126v-60h-126v-286c0 -44 19 -71 56 -73c36 -3 58 11 73 32
l19 -32c-45 -59 -93 -83 -158 -84c-49 -1 -131 30 -131 133l-1 310h-69z" />
    <glyph glyph-name="one.oldstyle" horiz-adv-x="415" 
d="M134 433l-93 13v55l166 -2l165 2v-55l-94 -11v-369l93 -13v-55l-164 2l-167 -2v55l94 11v369z" />
    <glyph glyph-name="two.oldstyle" horiz-adv-x="536" 
d="M210 111h247l12 27l22 -3l-21 -135h-417l-3 45c243 180 272 243 272 334c0 44 -21 63 -73 63c-34 0 -66 -14 -97 -44c11 -17 21 -32 21 -52c0 -34 -22 -54 -73 -54c-49 0 -64 65 -39 108c50 70 125 109 222 109c116 0 196 -43 196 -139c0 -91 -122 -179 -269 -259z" />
    <glyph glyph-name="three.oldstyle" horiz-adv-x="593" 
d="M184 94l-17 58l-22 45c212 26 229 75 229 142c0 45 -30 90 -102 90c-35 0 -78 -5 -108 -28c14 -16 28 -26 28 -48c0 -50 -28 -73 -75 -73c-55 0 -73 74 -48 126c42 76 150 100 218 100c118 0 244 -50 244 -170c0 -80 -68 -139 -214 -167l3 -26c175 -1 242 -83 242 -173
c0 -140 -154 -195 -306 -195c-100 0 -190 46 -215 91c-31 69 -10 139 53 139c52 0 73 -37 73 -70c0 -20 -16 -37 -23 -44c15 -30 85 -39 124 -39c82 0 127 53 127 121c0 125 -58 152 -211 121z" />
    <glyph glyph-name="four.oldstyle" horiz-adv-x="589" 
d="M43 -1v33h1l333 479l100 -1v-422h95v-89h-95v-148l80 -13v-47l-177 2l-125 -2v47l78 11v150h-290zM333 363l-195 -275h195v275z" />
    <glyph glyph-name="five.oldstyle" horiz-adv-x="563" 
d="M407 384h-240l-16 -179l11 -4c41 38 100 70 162 70c165 0 227 -135 227 -247c0 -155 -120 -248 -286 -248c-94 0 -180 46 -204 91c-31 69 8 136 61 136c52 0 72 -39 72 -77c0 -15 -21 -32 -31 -37c12 -20 45 -39 87 -39c107 0 151 76 151 183c0 53 -41 117 -124 117
c-57 0 -99 -9 -137 -23l-64 1l40 371h351l22 -152h-33c-4 19 -19 37 -49 37z" />
    <glyph glyph-name="six.oldstyle" horiz-adv-x="626" 
d="M563 597c0 -44 -29 -67 -63 -67c-28 0 -56 24 -61 57c-1 22 11 37 20 61c-13 9 -36 11 -61 11c-126 0 -179 -119 -186 -316l22 -6c20 65 81 102 150 102c133 0 211 -91 211 -202c0 -138 -110 -242 -269 -242c-198 0 -277 168 -277 295c0 268 136 432 308 432
c122 0 207 -54 206 -125zM345 60c74 0 96 61 96 153c0 91 -31 146 -109 146c-53 0 -102 -31 -121 -92c3 -96 25 -207 134 -207z" />
    <glyph glyph-name="seven.oldstyle" horiz-adv-x="491" 
d="M312 -144c0 -52 -19 -76 -63 -76c-47 0 -75 24 -75 76c0 157 59 301 213 497l-2 29h-277c-30 0 -49 -13 -60 -37l-34 1l14 154h482v-50c-170 -208 -198 -415 -198 -594z" />
    <glyph glyph-name="eight.oldstyle" horiz-adv-x="617" 
d="M560 561c0 -73 -56 -123 -133 -148l8 -30c81 -43 156 -104 156 -190c0 -108 -104 -200 -268 -200c-171 0 -279 77 -279 170c0 75 61 130 146 157l-11 44c-62 40 -113 95 -113 167c0 103 95 190 246 190c153 0 248 -72 248 -160zM298 308c-13 4 -26 9 -39 14
c-68 -29 -96 -89 -96 -149c0 -71 42 -123 160 -123c95 0 128 47 128 113c0 76 -82 120 -153 145zM338 426c11 -5 23 -9 35 -14c48 30 68 82 68 139c0 65 -34 112 -129 112c-79 0 -107 -43 -107 -102c0 -71 71 -112 133 -135z" />
    <glyph glyph-name="nine.oldstyle" horiz-adv-x="621" 
d="M79 -120l-1 1c-14 44 0 98 46 98c42 0 57 -22 57 -73c0 -14 -9 -36 -24 -49c18 -10 42 -14 70 -14c124 0 177 89 191 242l-36 5c-32 -30 -68 -38 -112 -38c-145 0 -232 101 -232 224c0 116 110 231 269 231c198 0 272 -192 272 -335c0 -218 -151 -392 -312 -392
c-100 0 -168 51 -189 100h1zM294 442c-84 0 -112 -69 -112 -172c0 -86 31 -148 109 -148c58 0 116 36 130 101c-3 102 -21 219 -127 219zM422 189v23l-2 -93c1 22 2 45 2 70z" />
    <glyph glyph-name="zero.oldstyle" horiz-adv-x="724" 
d="M49 247c0 142 112 262 306 262c195 0 307 -120 307 -262s-112 -256 -307 -256c-194 0 -306 114 -306 256zM211 247c0 -107 36 -195 144 -195c109 0 145 88 145 195c0 110 -36 201 -145 201c-108 0 -144 -91 -144 -201z" />
    <glyph glyph-name="st.liga" horiz-adv-x="834" 
d="M488 440v37l69 15v126h5v25s-86 19 -190 19c-65 0 -110 -23 -110 -63c0 -55 34 -94 70 -116v-1c21 -12 37 -25 43 -31l12 49h38v-157h-32c-18 65 -88 117 -169 117c-43 0 -52 -16 -53 -45c-1 -43 68 -74 123 -98c112 -48 151 -102 151 -169c0 -105 -90 -159 -185 -159
c-75 0 -142 47 -159 65l-13 -54h-33v168l32 1c30 -86 102 -130 185 -130c36 0 48 16 48 49c0 38 -73 89 -118 112c-124 57 -155 104 -155 167c0 97 94 141 190 141c6 0 12 -1 17 -1l7 17c-45 24 -70 52 -70 92s39 101 149 101c167 0 259 -45 365 -73v-45h-6v-99h126v-60
h-126v-286c0 -44 19 -71 56 -73c36 -3 58 11 73 32l19 -32c-45 -59 -93 -83 -158 -84c-49 -1 -131 30 -131 133l-1 310h-69z" />
    <glyph glyph-name="A.small" horiz-adv-x="704" 
d="M43 43l71 13l229 515h83l228 -515l72 -13v-45l-154 2l-139 -2v45l71 11l-42 93h-256l-40 -93l60 -11v-45l-89 2l-94 -2v45zM332 439l-103 -239h210z" />
    <glyph glyph-name="B.small" horiz-adv-x="640" 
d="M23 523l1 47h285c179 0 277 -62 277 -140c0 -76 -62 -112 -151 -128l1 -19c109 -8 193 -45 193 -134c0 -85 -98 -149 -276 -149h-154l-175 -2v45l73 11v460zM336 256h-90v-194l100 -1c101 -1 134 46 134 91c0 46 -27 107 -144 104zM246 507v-186h56
c116 -3 136 54 136 106c0 40 -34 82 -136 81z" />
    <glyph glyph-name="C.small" horiz-adv-x="660" 
d="M221 289c0 -148 69 -241 176 -241c118 0 162 56 185 146h37v-193h-37l-13 50c-24 -17 -84 -58 -174 -58c-140 0 -341 88 -341 295s201 292 341 292c90 0 150 -36 174 -48l13 40h37v-183h-37c-23 83 -67 135 -185 135c-107 0 -176 -90 -176 -235z" />
    <glyph glyph-name="D.small" horiz-adv-x="730" 
d="M246 62l56 -1c179 -4 223 119 223 222c0 109 -59 225 -234 224h-45v-445zM24 570h285c239 0 375 -123 375 -284c0 -186 -163 -286 -375 -286h-140l-145 -2v45l73 11v460l-74 9z" />
    <glyph glyph-name="E.small" horiz-adv-x="597" 
d="M19 570h514l1 -177h-34v31c5 68 -74 82 -180 83h-79v-191h34c61 -1 107 14 107 59v20h32v-212h-32v20c0 44 -46 60 -107 59h-34v-200l111 -1c106 -1 186 16 182 85v31h32l-1 -177h-546v43l73 11v460l-75 9z" />
    <glyph glyph-name="F.small" horiz-adv-x="570" 
d="M24 570h514l1 -177h-33v31c5 68 -75 84 -181 83h-79v-194h39c66 -1 115 11 115 46v20h33v-186h-33v20c0 34 -49 40 -115 39h-39v-196l74 -8v-50l-121 2l-175 -2v45l73 11v460l-74 9z" />
    <glyph glyph-name="G.small" horiz-adv-x="746" 
d="M221 289v-2c0 -146 69 -239 176 -239c121 0 142 49 142 63v90l-76 27v39l152 -3l112 3v-37l-44 -27v-122c-50 -51 -168 -88 -288 -88c-140 0 -341 88 -341 295s201 292 341 292c100 0 176 -43 202 -71l12 63h42v-173h-37c-25 77 -87 132 -217 132
c-107 0 -176 -97 -176 -242z" />
    <glyph glyph-name="H.small" horiz-adv-x="764" 
d="M246 56l71 -13v-45l-148 2l-145 -2v45l73 11v461l-74 9l1 47l143 -2l149 2v-47l-70 -9v-203h288v203l-73 9l1 47l152 -2l139 2v-47l-69 -9v-459l70 -13v-45l-138 2l-154 -2v45l72 11v198h-288v-196z" />
    <glyph glyph-name="I.small" horiz-adv-x="337" 
d="M251 56l72 -13v-45l-144 2l-150 -2v45l73 11v464l-74 9l1 47l148 -3l144 3v-47l-70 -9v-462z" />
    <glyph glyph-name="J.small" horiz-adv-x="477" 
d="M243 516l-72 9l1 47l137 -3l154 3v-47l-72 -11v-239c0 -165 -89 -281 -244 -281c-63 0 -110 29 -110 58c0 20 16 38 44 38c52 0 52 -43 111 -43c31 0 51 46 51 156v313z" />
    <glyph glyph-name="K.small" horiz-adv-x="686" 
d="M236 56l71 -13v-45l-138 2l-155 -2v45l73 11v461l-74 9l1 47l153 -3l139 3v-47l-70 -9v-233l254 214l-3 16l-56 4l2 55l119 -2l103 2v-54l-76 -9l-204 -182l266 -268l56 -14l-1 -44l-135 1l-174 -1v43l58 12l-1 11l-171 169l-37 -34v-145z" />
    <glyph glyph-name="L.small" horiz-adv-x="580" 
d="M246 514v-452h88c100 -1 171 5 171 104v31h45l-1 -197h-380l-145 -2v45l73 11v460l-74 9l1 47l143 -3l149 3v-47z" />
    <glyph glyph-name="M.small" horiz-adv-x="879" 
d="M801 56l71 -13v-45l-145 2l-149 -2v45l73 11v330l-217 -384h-27l-235 402v-346l75 -13v-45l-102 2l-102 -2v45l72 11v425c0 55 -30 38 -72 44l1 47h190l239 -382l214 377l2 5h182v-47l-70 -9v-458z" />
    <glyph glyph-name="N.small" horiz-adv-x="738" 
d="M588 513l-88 13v45l103 -2l105 2v-45l-66 -11v-515h-66l-400 371v-317l72 -13v-43l-102 2l-102 -2v43l78 11v428c0 55 -37 38 -79 44l1 47l131 -3l413 -384v329z" />
    <glyph glyph-name="O.small" horiz-adv-x="797" 
d="M54 283c0 166 135 297 349 297c213 0 348 -131 348 -297s-135 -292 -348 -292c-214 0 -349 126 -349 292zM222 283c0 -129 45 -228 181 -228s181 99 181 228c0 128 -45 233 -181 233s-181 -105 -181 -233z" />
    <glyph glyph-name="P.small" horiz-adv-x="609" 
d="M246 56l71 -13v-45l-148 2l-145 -2v45l73 11v460l-74 9l1 47h294c184 0 265 -80 265 -183c0 -125 -107 -201 -265 -201h-72v-130zM288 505h-42v-254h55c108 -4 132 70 132 133c0 61 -37 122 -145 121z" />
    <glyph glyph-name="Q.small" horiz-adv-x="797" 
d="M446 9l81 -3l-90 -52c79 -27 90 -79 159 -79c43 0 60 4 85 28c7 3 6 30 30 30c20 0 24 -23 14 -37c-30 -30 -123 -99 -189 -99c-119 0 -148 72 -223 106c-15 6 -38 3 -69 -16c-25 27 -19 42 20 47zM54 283c0 166 135 297 349 297c213 0 348 -131 348 -297
s-135 -292 -348 -292c-214 0 -349 126 -349 292zM222 283c0 -129 45 -228 181 -228s181 99 181 228c0 128 -45 233 -181 233s-181 -105 -181 -233z" />
    <glyph glyph-name="R.small" horiz-adv-x="650" 
d="M246 56l71 -13v-45l-148 2l-145 -2v45l73 11v460l-74 9l1 47h293c166 0 256 -61 256 -145c0 -76 -73 -117 -171 -134c1 -4 2 -8 4 -8c111 -3 160 -59 160 -132v-27c0 -58 14 -78 35 -78c14 0 25 4 35 12c1 3 6 7 11 8c6 3 25 -7 7 -26c-22 -23 -57 -46 -109 -46
c-86 0 -127 47 -127 129v29c0 46 -24 103 -79 103h-93v-199zM288 508h-42v-188h21c119 -3 152 50 152 102c0 45 -32 87 -131 86z" />
    <glyph glyph-name="S.small" horiz-adv-x="554" 
d="M76 194c36 -101 78 -146 196 -146c58 0 103 24 103 78c0 55 -67 85 -122 110c-145 64 -191 118 -191 191c0 106 123 152 216 152c84 0 147 -32 171 -40l11 36h31v-172h-26c-21 76 -91 120 -185 120c-52 0 -80 -25 -80 -68c0 -54 67 -71 129 -104
c122 -57 178 -117 178 -190c0 -114 -106 -171 -224 -171c-92 0 -155 35 -197 57l-9 -46h-29v192z" />
    <glyph glyph-name="T.small" horiz-adv-x="635" 
d="M449 507h-50v-460l74 -9l-1 -40l-144 3l-149 -3v40l71 9v460h-57c-79 1 -126 -14 -126 -73v-30h-45l1 166h595l1 -166h-43v30c0 59 -47 74 -127 73z" />
    <glyph glyph-name="U.small" horiz-adv-x="725" 
d="M359 -2c-134 0 -262 72 -262 219v300l-74 9l1 47l137 -3l155 3v-47l-70 -9v-298c0 -97 54 -135 144 -135c109 0 173 41 173 145v288l-70 9v47l103 -3l99 3l1 -47l-73 -9v-290c0 -154 -113 -229 -264 -229z" />
    <glyph glyph-name="V.small" horiz-adv-x="703" 
d="M695 526l-71 -13l-229 -515h-83l-229 515l-71 13v45l154 -2l139 2v-45l-72 -11l177 -397l162 397l-72 11v45l101 -2l94 2v-45z" />
    <glyph glyph-name="W.small" horiz-adv-x="976" 
d="M307 0h-75l-175 507l-71 17l3 47l152 -2l147 1v-51l-73 -11l-1 -9l109 -312l156 383h90l170 -387l96 318l6 8l-77 13v47l100 -2l106 2v-49l-71 -14l-156 -506h-78l-182 422z" />
    <glyph glyph-name="X.small" horiz-adv-x="660" 
d="M29 42l60 13l178 212l-195 247l-64 13v45l137 -2l161 2v-45l-69 -11l116 -145l122 145l-54 11v45l87 -2l100 2v-45l-57 -13l-160 -191l216 -268l65 -13v-45l-151 2l-155 -2v45l71 11l-132 166l-139 -166l52 -11v-45l-92 2l-97 -2v45z" />
    <glyph glyph-name="Y.small" horiz-adv-x="654" 
d="M51 514l-65 13v45l148 -2l145 2v-45l-66 -11v-10l150 -218l139 213l2 14l-51 11v46l106 -2l86 2v-46l-58 -13l-186 -275v-182l71 -13v-45l-139 2l-153 -2v45l71 11v165z" />
    <glyph glyph-name="Z.small" horiz-adv-x="572" 
d="M70 570h453v-25l-311 -484h144c113 0 132 44 141 77l10 34l49 -1l-16 -171h-497v39l312 472h-87c-70 0 -146 7 -161 -66l-4 -33l-45 2z" />
    <glyph glyph-name="Ccedilla" unicode="&#xc7;" horiz-adv-x="704" 
d="M246 -119l36 137c-119 45 -232 153 -232 340c0 256 214 365 362 365c94 0 171 -37 197 -61l16 53h45v-203h-33c-37 55 -92 137 -223 137c-120 0 -202 -117 -202 -290c0 -176 82 -293 202 -293c131 0 186 82 223 138h33v-203h-45l-16 53c-26 -24 -103 -61 -197 -61
c-23 0 -48 3 -74 8l-14 -53s23 9 47 9c53 0 93 -29 93 -81c0 -162 -223 -148 -223 -148l-2 56s138 -4 138 60c0 30 -28 38 -59 38c-25 0 -44 -4 -63 -10z" />
    <glyph glyph-name="ccedilla" unicode="&#xe7;" horiz-adv-x="531" 
d="M160 -119l33 127c-103 41 -150 139 -150 226c0 134 92 276 255 276c71 0 139 -22 172 -69c26 -39 14 -109 -45 -109c-42 0 -57 32 -57 62c0 18 2 16 10 35c-3 10 -20 18 -47 18c-103 0 -140 -81 -140 -203c0 -102 42 -181 138 -181c70 0 107 12 136 64l40 -17
c-29 -70 -110 -120 -204 -120c-18 0 -35 2 -51 4l-12 -46s23 9 47 9c53 0 93 -29 93 -81c0 -162 -223 -148 -223 -148l-2 56s138 -4 138 60c0 30 -28 38 -59 38c-25 0 -44 -4 -63 -10z" />
    <glyph glyph-name="Zcaron" unicode="&#x17d;" horiz-adv-x="654" 
d="M81 714h515v-25l-379 -624l201 1c105 0 169 73 155 118l-10 34l55 -1l-6 -218h-569v39l378 612h-132c-69 0 -146 -46 -160 -107l-4 -33l-56 2zM338 773h-34l-133 109h80l71 -55l67 55h76z" />
    <glyph glyph-name="zcaron" unicode="&#x17e;" horiz-adv-x="498" 
d="M52 500h413v-25l-261 -409v-3h157c64 0 77 52 90 99h37l-5 -162h-455v39l260 397v4h-117c-54 0 -75 -50 -87 -101l-43 2zM263 569h-34l-133 109h80l71 -55l67 55h76z" />
    <glyph glyph-name="Scaron" unicode="&#x160;" horiz-adv-x="605" 
d="M114 224c33 -125 64 -166 190 -166c71 0 112 33 112 91c0 72 -35 96 -162 163c-150 73 -200 134 -200 230c0 113 119 181 237 181c84 0 146 -25 171 -40l32 32h38v-202h-60c-21 98 -93 141 -179 141c-75 0 -107 -28 -107 -81c0 -70 66 -106 160 -152
c147 -68 211 -133 211 -234c0 -126 -124 -197 -257 -197c-86 0 -144 30 -183 49l-33 -38h-34v222zM315 782h-34l-133 109h80l71 -55l67 55h76z" />
    <glyph glyph-name="scaron" unicode="&#x161;" horiz-adv-x="477" 
d="M87 169c30 -86 102 -130 185 -130c36 0 48 16 48 49c0 38 -73 89 -118 112c-124 57 -155 104 -155 167c0 97 94 141 190 141c67 0 125 -43 138 -57l12 49h38v-157h-32c-18 65 -88 117 -169 117c-43 0 -52 -16 -53 -45c-1 -43 68 -74 123 -98c112 -48 151 -102 151 -169
c0 -105 -90 -159 -185 -159c-75 0 -142 47 -159 65l-13 -54h-33v168zM261 577h-34l-133 109h80l71 -55l67 55h76z" />
    <glyph glyph-name="Ydieresis" unicode="&#x178;" horiz-adv-x="711" 
d="M81 658l-64 13v45l132 -2l155 2v-45l-66 -11v-10l172 -262l136 257v14l-70 11v46l140 -2l86 2v-46l-58 -13l-207 -350v-251l78 -13v-45l-156 2l-143 -2v45l76 11v264zM391 830c0 33 30 63 79 63c48 0 79 -30 79 -63s-31 -60 -79 -60c-49 0 -79 27 -79 60zM184 830
c0 33 30 63 79 63c48 0 79 -30 79 -63s-31 -60 -79 -60c-49 0 -79 27 -79 60z" />
    <glyph glyph-name="Agrave" unicode="&#xc0;" horiz-adv-x="754" 
d="M16 43l67 9s44 85 89 207l166 455h91l249 -658l77 -13v-45l-156 2l-162 -2v45l78 11l-54 152h-238c-38 -100 -61 -152 -61 -152l72 -11v-45l-118 2l-100 -2v45zM343 539l-100 -278h198zM360 761l-119 96c-10 10 -15 21 -13 32c2 22 46 53 69 48c9 -2 20 -8 26 -19
l81 -125z" />
    <glyph glyph-name="Aacute" unicode="&#xc1;" horiz-adv-x="754" 
d="M16 43l67 9s44 85 89 207l166 455h91l249 -658l77 -13v-45l-156 2l-162 -2v45l78 11l-54 152h-238c-38 -100 -61 -152 -61 -152l72 -11v-45l-118 2l-100 -2v45zM343 539l-100 -278h198zM512 860l-122 -96l-40 29l80 125c7 11 17 17 27 19c24 5 67 -23 69 -45
c2 -11 -3 -22 -14 -32z" />
    <glyph glyph-name="Acircumflex" unicode="&#xc2;" horiz-adv-x="754" 
d="M16 43l67 9s44 85 89 207l166 455h91l249 -658l77 -13v-45l-156 2l-162 -2v45l78 11l-54 152h-238c-38 -100 -61 -152 -61 -152l72 -11v-45l-118 2l-100 -2v45zM343 539l-100 -278h198zM360 875h34l124 -109h-90l-52 42l-55 -42h-87z" />
    <glyph glyph-name="Atilde" unicode="&#xc3;" horiz-adv-x="754" 
d="M16 43l67 9s44 85 89 207l166 455h91l249 -658l77 -13v-45l-156 2l-162 -2v45l78 11l-54 152h-238c-38 -100 -61 -152 -61 -152l72 -11v-45l-118 2l-100 -2v45zM343 539l-100 -278h198zM441 771c-68 11 -74 37 -142 49c-35 5 -64 -15 -60 -54l-49 5
c-11 66 52 112 126 101c67 -11 73 -37 141 -49c36 -5 64 15 60 54l49 -5c12 -66 -52 -112 -125 -101z" />
    <glyph glyph-name="Adieresis" unicode="&#xc4;" horiz-adv-x="754" 
d="M16 43l67 9s44 85 89 207l166 455h91l249 -658l77 -13v-45l-156 2l-162 -2v45l78 11l-54 152h-238c-38 -100 -61 -152 -61 -152l72 -11v-45l-118 2l-100 -2v45zM343 539l-100 -278h198zM417 825c0 33 30 63 79 63c48 0 79 -30 79 -63s-31 -60 -79 -60
c-49 0 -79 27 -79 60zM210 825c0 33 30 63 79 63c48 0 79 -30 79 -63s-31 -60 -79 -60c-49 0 -79 27 -79 60z" />
    <glyph glyph-name="Aring" unicode="&#xc5;" horiz-adv-x="754" 
d="M16 43l67 9s44 85 89 207l166 455h91l249 -658l77 -13v-45l-156 2l-162 -2v45l78 11l-54 152h-238c-38 -100 -61 -152 -61 -152l72 -11v-45l-118 2l-100 -2v45zM343 539l-100 -278h198zM285 850c0 46 41 84 89 84s89 -38 89 -84s-41 -84 -89 -84s-89 38 -89 84zM321 850
c0 -27 25 -51 53 -51c29 0 55 24 55 51s-26 51 -55 51c-28 0 -53 -24 -53 -51z" />
    <glyph glyph-name="Egrave" unicode="&#xc8;" horiz-adv-x="701" 
d="M28 714h579l-3 -187h-55l-2 18c-6 38 -49 107 -139 106l-147 -1v-264h26c74 -1 128 16 128 69v20h32v-232h-32v20c0 52 -58 63 -131 62h-23v-262l180 -1c85 1 158 59 169 101l4 18l53 -2l-27 -179h-456l-156 -2v45l80 11v604l-81 9zM307 764l-119 96
c-10 10 -15 21 -13 32c2 22 46 53 69 48c9 -2 20 -8 26 -19l81 -125z" />
    <glyph glyph-name="Eacute" unicode="&#xc9;" horiz-adv-x="701" 
d="M607 714h-579l-1 -47l81 -9v-604l-80 -11v-45l156 2h456l27 179l-53 2l-4 -18c-11 -42 -84 -100 -169 -101l-180 1v262h23c73 1 131 -10 131 -62v-20h32v232h-32v-20c0 -53 -54 -70 -128 -69h-26v264l147 1c90 1 133 -68 139 -106l2 -18h55zM459 863l-122 -96l-40 29
l80 125c7 11 17 17 27 19c24 5 67 -23 69 -45c2 -11 -3 -22 -14 -32z" />
    <glyph glyph-name="Ecircumflex" unicode="&#xca;" horiz-adv-x="701" 
d="M28 714h579l-3 -187h-55l-2 18c-6 38 -49 107 -139 106l-147 -1v-264h26c74 -1 128 16 128 69v20h32v-232h-32v20c0 52 -58 63 -131 62h-23v-262l180 -1c85 1 158 59 169 101l4 18l53 -2l-27 -179h-456l-156 -2v45l80 11v604l-81 9zM307 878h34l124 -109h-90l-52 42
l-55 -42h-87z" />
    <glyph glyph-name="Edieresis" unicode="&#xcb;" horiz-adv-x="701" 
d="M607 714h-579l-1 -47l81 -9v-604l-80 -11v-45l156 2h456l27 179l-53 2l-4 -18c-11 -42 -84 -100 -169 -101l-180 1v262h23c73 1 131 -10 131 -62v-20h32v232h-32v-20c0 -53 -54 -70 -128 -69h-26v264l147 1c90 1 133 -68 139 -106l2 -18h55zM364 828c0 33 30 63 79 63
c48 0 79 -30 79 -63s-31 -60 -79 -60c-49 0 -79 27 -79 60zM157 828c0 33 30 63 79 63c48 0 79 -30 79 -63s-31 -60 -79 -60c-49 0 -79 27 -79 60z" />
    <glyph glyph-name="Igrave" unicode="&#xcc;" horiz-adv-x="393" 
d="M272 56l77 -13v-45l-149 2l-151 -2v45l79 11v604l-80 9l1 47l149 -3l150 3v-47l-76 -9v-602zM183 764l-119 96c-10 10 -15 21 -13 32c2 22 46 53 69 48c9 -2 20 -8 26 -19l81 -125z" />
    <glyph glyph-name="Iacute" unicode="&#xcd;" horiz-adv-x="393" 
d="M272 56l77 -13v-45l-149 2l-151 -2v45l79 11v604l-80 9l1 47l149 -3l150 3v-47l-76 -9v-602zM335 863l-122 -96l-40 29l80 125c7 11 17 17 27 19c24 5 67 -23 69 -45c2 -11 -3 -22 -14 -32z" />
    <glyph glyph-name="Icircumflex" unicode="&#xce;" horiz-adv-x="393" 
d="M272 56l77 -13v-45l-149 2l-151 -2v45l79 11v604l-80 9l1 47l149 -3l150 3v-47l-76 -9v-602zM183 878h34l124 -109h-90l-52 42l-55 -42h-87z" />
    <glyph glyph-name="Idieresis" unicode="&#xcf;" horiz-adv-x="393" 
d="M272 56l77 -13v-45l-149 2l-151 -2v45l79 11v604l-80 9l1 47l149 -3l150 3v-47l-76 -9v-602zM240 828c0 33 30 63 79 63c48 0 79 -30 79 -63s-31 -60 -79 -60c-49 0 -79 27 -79 60zM33 828c0 33 30 63 79 63c48 0 79 -30 79 -63s-31 -60 -79 -60c-49 0 -79 27 -79 60z
" />
    <glyph glyph-name="Ntilde" unicode="&#xd1;" horiz-adv-x="814" 
d="M638 656l-90 13v45l109 -2l135 2v-45l-68 -11s-8 -78 -8 -250l-1 -408h-81l-449 541v-204c0 -164 6 -281 6 -281l87 -13v-45l-109 2l-142 -2v45l83 11s7 119 7 281v288c0 55 -44 38 -86 44l1 47h203l411 -499v191c0 172 -8 250 -8 250zM444 774c-68 11 -74 37 -142 49
c-35 5 -64 -15 -60 -54l-49 5c-11 66 52 112 126 101c67 -11 73 -37 141 -49c36 -5 64 15 60 54l49 -5c12 -66 -52 -112 -125 -101z" />
    <glyph glyph-name="Ograve" unicode="&#xd2;" horiz-adv-x="811" 
d="M50 357c0 208 141 367 361 367s359 -159 359 -367s-139 -366 -359 -366s-361 158 -361 366zM213 357c0 -165 54 -292 198 -292c143 0 197 127 197 292c0 164 -54 293 -197 293c-144 0 -198 -129 -198 -293zM381 774l-119 96c-10 10 -15 21 -13 32c2 22 46 53 69 48
c9 -2 20 -8 26 -19l81 -125z" />
    <glyph glyph-name="Oacute" unicode="&#xd3;" horiz-adv-x="811" 
d="M50 357c0 208 141 367 361 367s359 -159 359 -367s-139 -366 -359 -366s-361 158 -361 366zM213 357c0 -165 54 -292 198 -292c143 0 197 127 197 292c0 164 -54 293 -197 293c-144 0 -198 -129 -198 -293zM533 873l-122 -96l-40 29l80 125c7 11 17 17 27 19
c24 5 67 -23 69 -45c2 -11 -3 -22 -14 -32z" />
    <glyph glyph-name="Ocircumflex" unicode="&#xd4;" horiz-adv-x="811" 
d="M50 357c0 208 141 367 361 367s359 -159 359 -367s-139 -366 -359 -366s-361 158 -361 366zM213 357c0 -165 54 -292 198 -292c143 0 197 127 197 292c0 164 -54 293 -197 293c-144 0 -198 -129 -198 -293zM381 888h34l124 -109h-90l-52 42l-55 -42h-87z" />
    <glyph glyph-name="Otilde" unicode="&#xd5;" horiz-adv-x="811" 
d="M50 357c0 208 141 367 361 367s359 -159 359 -367s-139 -366 -359 -366s-361 158 -361 366zM213 357c0 -165 54 -292 198 -292c143 0 197 127 197 292c0 164 -54 293 -197 293c-144 0 -198 -129 -198 -293zM462 784c-68 11 -74 37 -142 49c-35 5 -64 -15 -60 -54l-49 5
c-11 66 52 112 126 101c67 -11 73 -37 141 -49c36 -5 64 15 60 54l49 -5c12 -66 -52 -112 -125 -101z" />
    <glyph glyph-name="Odieresis" unicode="&#xd6;" horiz-adv-x="811" 
d="M50 357c0 208 141 367 361 367s359 -159 359 -367s-139 -366 -359 -366s-361 158 -361 366zM213 357c0 -165 54 -292 198 -292c143 0 197 127 197 292c0 164 -54 293 -197 293c-144 0 -198 -129 -198 -293zM438 838c0 33 30 63 79 63c48 0 79 -30 79 -63s-31 -60 -79 -60
c-49 0 -79 27 -79 60zM231 838c0 33 30 63 79 63c48 0 79 -30 79 -63s-31 -60 -79 -60c-49 0 -79 27 -79 60z" />
    <glyph glyph-name="Ugrave" unicode="&#xd9;" horiz-adv-x="775" 
d="M393 -2c-145 0 -286 72 -286 219v441l-80 9l1 47l146 -3l156 3v-47l-76 -9v-439c0 -97 67 -142 170 -142c114 0 182 48 182 152l-1 429l-74 9v47l121 -3l98 3l1 -47l-78 -9v-431c0 -154 -116 -229 -280 -229zM362 764l-119 96c-10 10 -15 21 -13 32c2 22 46 53 69 48
c9 -2 20 -8 26 -19l81 -125z" />
    <glyph glyph-name="Uacute" unicode="&#xda;" horiz-adv-x="775" 
d="M393 -2c164 0 280 75 280 229v431l78 9l-1 47l-98 -3l-121 3v-47l74 -9l1 -429c0 -104 -68 -152 -182 -152c-103 0 -170 45 -170 142v439l76 9v47l-156 -3l-146 3l-1 -47l80 -9v-441c0 -147 141 -219 286 -219zM514 863l-122 -96l-40 29l80 125c7 11 17 17 27 19
c24 5 67 -23 69 -45c2 -11 -3 -22 -14 -32z" />
    <glyph glyph-name="Ucircumflex" unicode="&#xdb;" horiz-adv-x="775" 
d="M393 -2c-145 0 -286 72 -286 219v441l-80 9l1 47l146 -3l156 3v-47l-76 -9v-439c0 -97 67 -142 170 -142c114 0 182 48 182 152l-1 429l-74 9v47l121 -3l98 3l1 -47l-78 -9v-431c0 -154 -116 -229 -280 -229zM362 878h34l124 -109h-90l-52 42l-55 -42h-87z" />
    <glyph glyph-name="Udieresis" unicode="&#xdc;" horiz-adv-x="775" 
d="M393 -2c164 0 280 75 280 229v431l78 9l-1 47l-98 -3l-121 3v-47l74 -9l1 -429c0 -104 -68 -152 -182 -152c-103 0 -170 45 -170 142v439l76 9v47l-156 -3l-146 3l-1 -47l80 -9v-441c0 -147 141 -219 286 -219zM419 828c0 33 30 63 79 63c48 0 79 -30 79 -63
s-31 -60 -79 -60c-49 0 -79 27 -79 60zM212 828c0 33 30 63 79 63c48 0 79 -30 79 -63s-31 -60 -79 -60c-49 0 -79 27 -79 60z" />
    <glyph glyph-name="Yacute" unicode="&#xdd;" horiz-adv-x="711" 
d="M81 658l-64 13v45l132 -2l155 2v-45l-66 -11v-10l172 -262l136 257v14l-70 11v46l140 -2l86 2v-46l-58 -13l-207 -350v-251l78 -13v-45l-156 2l-143 -2v45l76 11v264zM486 865l-122 -96l-40 29l80 125c7 11 17 17 27 19c24 5 67 -23 69 -45c2 -11 -3 -22 -14 -32z" />
    <glyph glyph-name="agrave" unicode="&#xe0;" horiz-adv-x="573" 
d="M124 330c-35 0 -51 23 -51 49c3 85 135 131 214 131c117 0 196 -38 196 -159v-250c0 -26 5 -35 25 -35c17 0 28 -2 40 7l14 -26c-24 -25 -76 -56 -135 -52c-45 4 -70 21 -80 48l-37 5c-24 -40 -72 -54 -140 -54c-75 0 -115 52 -115 116c0 79 92 146 216 169l71 13v64
c0 60 -24 92 -82 92c-28 0 -69 -5 -93 -28c10 -8 18 -15 18 -29c0 -34 -12 -61 -61 -61zM245 81c46 0 87 25 97 57v102l-63 -17c-54 -16 -80 -43 -80 -94c0 -33 16 -48 46 -48zM277 570l-119 96c-10 10 -15 21 -13 32c2 22 46 53 69 48c9 -2 20 -8 26 -19l81 -125z" />
    <glyph glyph-name="aacute" unicode="&#xe1;" horiz-adv-x="573" 
d="M124 330c-35 0 -51 23 -51 49c3 85 135 131 214 131c117 0 196 -38 196 -159v-250c0 -26 5 -35 25 -35c17 0 28 -2 40 7l14 -26c-24 -25 -76 -56 -135 -52c-45 4 -70 21 -80 48l-37 5c-24 -40 -72 -54 -140 -54c-75 0 -115 52 -115 116c0 79 92 146 216 169l71 13v64
c0 60 -24 92 -82 92c-28 0 -69 -5 -93 -28c10 -8 18 -15 18 -29c0 -34 -12 -61 -61 -61zM245 81c46 0 87 25 97 57v102l-63 -17c-54 -16 -80 -43 -80 -94c0 -33 16 -48 46 -48zM429 669l-122 -96l-40 29l80 125c7 11 17 17 27 19c24 5 67 -23 69 -45c2 -11 -3 -22 -14 -32z
" />
    <glyph glyph-name="acircumflex" unicode="&#xe2;" horiz-adv-x="573" 
d="M124 330c-35 0 -51 23 -51 49c3 85 135 131 214 131c117 0 196 -38 196 -159v-250c0 -26 5 -35 25 -35c17 0 28 -2 40 7l14 -26c-24 -25 -76 -56 -135 -52c-45 4 -70 21 -80 48l-37 5c-24 -40 -72 -54 -140 -54c-75 0 -115 52 -115 116c0 79 92 146 216 169l71 13v64
c0 60 -24 92 -82 92c-28 0 -69 -5 -93 -28c10 -8 18 -15 18 -29c0 -34 -12 -61 -61 -61zM245 81c46 0 87 25 97 57v102l-63 -17c-54 -16 -80 -43 -80 -94c0 -33 16 -48 46 -48zM277 684h34l124 -109h-90l-52 42l-55 -42h-87z" />
    <glyph glyph-name="atilde" unicode="&#xe3;" horiz-adv-x="573" 
d="M124 330c-35 0 -51 23 -51 49c3 85 135 131 214 131c117 0 196 -38 196 -159v-250c0 -26 5 -35 25 -35c17 0 28 -2 40 7l14 -26c-24 -25 -76 -56 -135 -52c-45 4 -70 21 -80 48l-37 5c-24 -40 -72 -54 -140 -54c-75 0 -115 52 -115 116c0 79 92 146 216 169l71 13v64
c0 60 -24 92 -82 92c-28 0 -69 -5 -93 -28c10 -8 18 -15 18 -29c0 -34 -12 -61 -61 -61zM245 81c46 0 87 25 97 57v102l-63 -17c-54 -16 -80 -43 -80 -94c0 -33 16 -48 46 -48zM358 580c-68 11 -74 37 -142 49c-35 5 -64 -15 -60 -54l-49 5c-11 66 52 112 126 101
c67 -11 73 -37 141 -49c36 -5 64 15 60 54l49 -5c12 -66 -52 -112 -125 -101z" />
    <glyph glyph-name="adieresis" unicode="&#xe4;" horiz-adv-x="573" 
d="M124 330c-35 0 -51 23 -51 49c3 85 135 131 214 131c117 0 196 -38 196 -159v-250c0 -26 5 -35 25 -35c17 0 28 -2 40 7l14 -26c-24 -25 -76 -56 -135 -52c-45 4 -70 21 -80 48l-37 5c-24 -40 -72 -54 -140 -54c-75 0 -115 52 -115 116c0 79 92 146 216 169l71 13v64
c0 60 -24 92 -82 92c-28 0 -69 -5 -93 -28c10 -8 18 -15 18 -29c0 -34 -12 -61 -61 -61zM245 81c46 0 87 25 97 57v102l-63 -17c-54 -16 -80 -43 -80 -94c0 -33 16 -48 46 -48zM334 634c0 33 30 63 79 63c48 0 79 -30 79 -63s-31 -60 -79 -60c-49 0 -79 27 -79 60zM127 634
c0 33 30 63 79 63c48 0 79 -30 79 -63s-31 -60 -79 -60c-49 0 -79 27 -79 60z" />
    <glyph glyph-name="aring" unicode="&#xe5;" horiz-adv-x="573" 
d="M124 330c-35 0 -51 23 -51 49c3 85 135 131 214 131c117 0 196 -38 196 -159v-250c0 -26 5 -35 25 -35c17 0 28 -2 40 7l14 -26c-24 -25 -76 -56 -135 -52c-45 4 -70 21 -80 48l-37 5c-24 -40 -72 -54 -140 -54c-75 0 -115 52 -115 116c0 79 92 146 216 169l71 13v64
c0 60 -24 92 -82 92c-28 0 -69 -5 -93 -28c10 -8 18 -15 18 -29c0 -34 -12 -61 -61 -61zM245 81c46 0 87 25 97 57v102l-63 -17c-54 -16 -80 -43 -80 -94c0 -33 16 -48 46 -48zM202 659c0 46 41 84 89 84s89 -38 89 -84s-41 -84 -89 -84s-89 38 -89 84zM238 659
c0 -27 25 -51 53 -51c29 0 55 24 55 51s-26 51 -55 51c-28 0 -53 -24 -53 -51z" />
    <glyph glyph-name="egrave" unicode="&#xe8;" horiz-adv-x="555" 
d="M515 252l-324 1v-17c0 -86 39 -180 142 -180c65 0 120 25 151 61l36 -27c-41 -59 -113 -100 -223 -100c-170 0 -254 133 -254 246c0 129 88 274 257 274c109 0 215 -56 215 -200v-58zM298 447c-67 0 -96 -48 -105 -145h184c0 116 -26 145 -79 145zM263 570l-119 96
c-10 10 -15 21 -13 32c2 22 46 53 69 48c9 -2 20 -8 26 -19l81 -125z" />
    <glyph glyph-name="eacute" unicode="&#xe9;" horiz-adv-x="555" 
d="M515 252l-324 1v-17c0 -86 39 -180 142 -180c65 0 120 25 151 61l36 -27c-41 -59 -113 -100 -223 -100c-170 0 -254 133 -254 246c0 129 88 274 257 274c109 0 215 -56 215 -200v-58zM298 447c-67 0 -96 -48 -105 -145h184c0 116 -26 145 -79 145zM415 669l-122 -96
l-40 29l80 125c7 11 17 17 27 19c24 5 67 -23 69 -45c2 -11 -3 -22 -14 -32z" />
    <glyph glyph-name="ecircumflex" unicode="&#xea;" horiz-adv-x="555" 
d="M515 252l-324 1v-17c0 -86 39 -180 142 -180c65 0 120 25 151 61l36 -27c-41 -59 -113 -100 -223 -100c-170 0 -254 133 -254 246c0 129 88 274 257 274c109 0 215 -56 215 -200v-58zM298 447c-67 0 -96 -48 -105 -145h184c0 116 -26 145 -79 145zM263 684h34l124 -109
h-90l-52 42l-55 -42h-87z" />
    <glyph glyph-name="edieresis" unicode="&#xeb;" horiz-adv-x="555" 
d="M515 252l-324 1v-17c0 -86 39 -180 142 -180c65 0 120 25 151 61l36 -27c-41 -59 -113 -100 -223 -100c-170 0 -254 133 -254 246c0 129 88 274 257 274c109 0 215 -56 215 -200v-58zM298 447c-67 0 -96 -48 -105 -145h184c0 116 -26 145 -79 145zM320 634
c0 33 30 63 79 63c48 0 79 -30 79 -63s-31 -60 -79 -60c-49 0 -79 27 -79 60zM113 634c0 33 30 63 79 63c48 0 79 -30 79 -63s-31 -60 -79 -60c-49 0 -79 27 -79 60z" />
    <glyph glyph-name="igrave" unicode="&#xec;" horiz-adv-x="322" 
d="M92 33v410l-57 10l2 40l195 12v-470l74 -12l-1 -26l-138 3l-144 -3l-3 26zM149 565l-119 96c-10 10 -15 21 -13 32c2 22 46 53 69 48c9 -2 20 -8 26 -19l81 -125z" />
    <glyph glyph-name="iacute" unicode="&#xed;" horiz-adv-x="322" 
d="M92 33v410l-57 10l2 40l195 12v-470l74 -12l-1 -26l-138 3l-144 -3l-3 26zM301 664l-122 -96l-40 29l80 125c7 11 17 17 27 19c24 5 67 -23 69 -45c2 -11 -3 -22 -14 -32z" />
    <glyph glyph-name="icircumflex" unicode="&#xee;" horiz-adv-x="322" 
d="M92 33v410l-57 10l2 40l195 12v-470l74 -12l-1 -26l-138 3l-144 -3l-3 26zM149 679h34l124 -109h-90l-52 42l-55 -42h-87z" />
    <glyph glyph-name="idieresis" unicode="&#xef;" horiz-adv-x="322" 
d="M92 33v410l-57 10l2 40l195 12v-470l74 -12l-1 -26l-138 3l-144 -3l-3 26zM206 629c0 33 30 63 79 63c48 0 79 -30 79 -63s-31 -60 -79 -60c-49 0 -79 27 -79 60zM-1 629c0 33 30 63 79 63c48 0 79 -30 79 -63s-31 -60 -79 -60c-49 0 -79 27 -79 60z" />
    <glyph glyph-name="ntilde" unicode="&#xf1;" horiz-adv-x="655" 
d="M92 46v371l-69 23l2 53l207 12v-88h34c23 61 76 93 139 93c95 0 166 -49 166 -162v-300l77 -12l-1 -39l-142 3l-145 -3l-2 39l72 10v315c0 47 -22 64 -72 64c-62 0 -123 -57 -126 -136v-241l79 -12l-1 -39l-153 3l-141 -3l-2 39zM394 580c-68 11 -74 37 -142 49
c-35 5 -64 -15 -60 -54l-49 5c-11 66 52 112 126 101c67 -11 73 -37 141 -49c36 -5 64 15 60 54l49 -5c12 -66 -52 -112 -125 -101z" />
    <glyph glyph-name="ograve" unicode="&#xf2;" horiz-adv-x="637" 
d="M48 250c0 144 103 260 273 260c172 0 275 -116 275 -260s-103 -259 -275 -259c-170 0 -273 115 -273 259zM198 250c0 -101 28 -188 123 -188c97 0 125 87 125 188s-28 187 -125 187c-95 0 -123 -86 -123 -187zM299 570l-119 96c-10 10 -15 21 -13 32c2 22 46 53 69 48
c9 -2 20 -8 26 -19l81 -125z" />
    <glyph glyph-name="oacute" unicode="&#xf3;" horiz-adv-x="637" 
d="M48 250c0 144 103 260 273 260c172 0 275 -116 275 -260s-103 -259 -275 -259c-170 0 -273 115 -273 259zM198 250c0 -101 28 -188 123 -188c97 0 125 87 125 188s-28 187 -125 187c-95 0 -123 -86 -123 -187zM451 669l-122 -96l-40 29l80 125c7 11 17 17 27 19
c24 5 67 -23 69 -45c2 -11 -3 -22 -14 -32z" />
    <glyph glyph-name="ocircumflex" unicode="&#xf4;" horiz-adv-x="637" 
d="M48 250c0 144 103 260 273 260c172 0 275 -116 275 -260s-103 -259 -275 -259c-170 0 -273 115 -273 259zM198 250c0 -101 28 -188 123 -188c97 0 125 87 125 188s-28 187 -125 187c-95 0 -123 -86 -123 -187zM299 684h34l124 -109h-90l-52 42l-55 -42h-87z" />
    <glyph glyph-name="otilde" unicode="&#xf5;" horiz-adv-x="637" 
d="M48 250c0 144 103 260 273 260c172 0 275 -116 275 -260s-103 -259 -275 -259c-170 0 -273 115 -273 259zM198 250c0 -101 28 -188 123 -188c97 0 125 87 125 188s-28 187 -125 187c-95 0 -123 -86 -123 -187zM380 580c-68 11 -74 37 -142 49c-35 5 -64 -15 -60 -54
l-49 5c-11 66 52 112 126 101c67 -11 73 -37 141 -49c36 -5 64 15 60 54l49 -5c12 -66 -52 -112 -125 -101z" />
    <glyph glyph-name="odieresis" unicode="&#xf6;" horiz-adv-x="637" 
d="M48 250c0 144 103 260 273 260c172 0 275 -116 275 -260s-103 -259 -275 -259c-170 0 -273 115 -273 259zM198 250c0 -101 28 -188 123 -188c97 0 125 87 125 188s-28 187 -125 187c-95 0 -123 -86 -123 -187zM356 634c0 33 30 63 79 63c48 0 79 -30 79 -63
s-31 -60 -79 -60c-49 0 -79 27 -79 60zM149 634c0 33 30 63 79 63c48 0 79 -30 79 -63s-31 -60 -79 -60c-49 0 -79 27 -79 60z" />
    <glyph glyph-name="ugrave" unicode="&#xf9;" horiz-adv-x="643" 
d="M571 510v-453l68 -10l-2 -43l-203 -12l5 71l-37 9c-20 -53 -81 -85 -143 -85c-98 0 -168 38 -168 162v273l-79 25l1 53l218 10v-374c0 -49 21 -64 71 -64c62 0 124 56 127 136v214l-79 25l1 53zM297 570l-119 96c-10 10 -15 21 -13 32c2 22 46 53 69 48
c9 -2 20 -8 26 -19l81 -125z" />
    <glyph glyph-name="uacute" unicode="&#xfa;" horiz-adv-x="643" 
d="M571 510v-453l68 -10l-2 -43l-203 -12l5 71l-37 9c-20 -53 -81 -85 -143 -85c-98 0 -168 38 -168 162v273l-79 25l1 53l218 10v-374c0 -49 21 -64 71 -64c62 0 124 56 127 136v214l-79 25l1 53zM449 669l-122 -96l-40 29l80 125c7 11 17 17 27 19c24 5 67 -23 69 -45
c2 -11 -3 -22 -14 -32z" />
    <glyph glyph-name="ucircumflex" unicode="&#xfb;" horiz-adv-x="643" 
d="M571 510v-453l68 -10l-2 -43l-203 -12l5 71l-37 9c-20 -53 -81 -85 -143 -85c-98 0 -168 38 -168 162v273l-79 25l1 53l218 10v-374c0 -49 21 -64 71 -64c62 0 124 56 127 136v214l-79 25l1 53zM297 684h34l124 -109h-90l-52 42l-55 -42h-87z" />
    <glyph glyph-name="udieresis" unicode="&#xfc;" horiz-adv-x="643" 
d="M571 510v-453l68 -10l-2 -43l-203 -12l5 71l-37 9c-20 -53 -81 -85 -143 -85c-98 0 -168 38 -168 162v273l-79 25l1 53l218 10v-374c0 -49 21 -64 71 -64c62 0 124 56 127 136v214l-79 25l1 53zM354 634c0 33 30 63 79 63c48 0 79 -30 79 -63s-31 -60 -79 -60
c-49 0 -79 27 -79 60zM147 634c0 33 30 63 79 63c48 0 79 -30 79 -63s-31 -60 -79 -60c-49 0 -79 27 -79 60z" />
    <glyph glyph-name="yacute" unicode="&#xfd;" horiz-adv-x="591" 
d="M368 649l-122 -96l-40 29l80 125c7 11 17 17 27 19c24 5 67 -23 69 -45c2 -11 -3 -22 -14 -32z" />
    <glyph glyph-name="ydieresis" unicode="&#xff;" horiz-adv-x="591" 
d="M335 689c0 33 30 63 79 63c48 0 79 -30 79 -63s-31 -60 -79 -60c-49 0 -79 27 -79 60zM128 689c0 33 30 63 79 63c48 0 79 -30 79 -63s-31 -60 -79 -60c-49 0 -79 27 -79 60z" />
    <glyph glyph-name="space" unicode=" " horiz-adv-x="252" 
 />
    </font>
</defs>
</svg>
